<svg xmlns="http://www.w3.org/2000/svg" viewBox="0 0 332 244" role="img" aria-labelledby="notecode-logo-stacked-white-title">
  <title id="notecode-logo-stacked-white-title">NoteCode</title>
  <g transform="scale(0.25)" fill="#fff" fill-rule="evenodd">
    <path d="M 440.500 114 C 439.061 115.590, 437.420 116, 432.500 116 C 427.580 116, 425.939 116.410, 424.500 118 C 423.239 119.394, 421.420 120, 418.500 120 C 415.580 120, 413.761 120.606, 412.500 122 C 411.505 123.100, 409.705 124, 408.500 124 C 407.295 124, 405.495 124.900, 404.500 126 C 403.505 127.100, 401.733 128, 400.564 128 C 399.291 128, 396.053 130.409, 392.500 134 C 389.061 137.475, 385.695 140, 384.500 140 C 383.305 140, 379.939 142.525, 376.500 146 C 373.076 149.460, 369.693 152, 368.508 152 C 367.269 152, 363.296 155.176, 358.500 160 C 353.724 164.804, 349.729 168, 348.500 168 C 347.271 168, 343.276 171.196, 338.500 176 C 333.736 180.792, 329.728 184, 328.505 184 C 327.249 184, 322.627 187.850, 316.500 194 C 310.396 200.127, 305.749 204, 304.502 204 C 301.720 204, 280 225.816, 280 228.611 C 280 229.754, 279.100 231.505, 278 232.500 C 276.022 234.290, 276 235.580, 276 348.455 C 276 435.901, 276.281 462.881, 277.200 463.800 C 278.930 465.530, 378.070 465.530, 379.800 463.800 C 380.721 462.879, 381 431.457, 381 328.455 C 381 195.580, 381.019 194.293, 383 192.500 C 384.100 191.505, 385 189.772, 385 188.650 C 385 185.916, 389.840 181, 392.532 181 C 393.719 181, 395.505 180.100, 396.500 179 C 397.761 177.606, 399.580 177, 402.500 177 C 405.420 177, 407.239 177.606, 408.500 179 C 409.751 180.382, 411.580 181, 414.422 181 C 418.319 181, 419.096 181.563, 429.267 191.766 C 436.016 198.536, 440 203.304, 440 204.611 C 440 205.755, 440.900 207.505, 442 208.500 C 443.100 209.495, 444 211.274, 444 212.452 C 444 213.633, 445.794 216.346, 448 218.500 C 450.206 220.654, 452 223.367, 452 224.548 C 452 225.726, 452.900 227.505, 454 228.500 C 455.100 229.495, 456 231.295, 456 232.500 C 456 233.705, 456.900 235.505, 458 236.500 C 459.100 237.495, 460 239.295, 460 240.500 C 460 241.705, 460.900 243.505, 462 244.500 C 463.100 245.495, 464 247.295, 464 248.500 C 464 249.705, 464.900 251.505, 466 252.500 C 467.100 253.495, 468 255.295, 468 256.500 C 468 257.705, 468.900 259.505, 470 260.500 C 471.100 261.495, 472 263.274, 472 264.452 C 472 265.633, 473.794 268.346, 476 270.500 C 478.206 272.654, 480 275.367, 480 276.548 C 480 277.726, 480.900 279.505, 482 280.500 C 483.100 281.495, 484 283.295, 484 284.500 C 484 285.705, 484.900 287.505, 486 288.500 C 487.100 289.495, 488 291.295, 488 292.500 C 488 293.705, 488.900 295.505, 490 296.500 C 491.100 297.495, 492 299.295, 492 300.500 C 492 301.705, 492.900 303.505, 494 304.500 C 495.100 305.495, 496 307.295, 496 308.500 C 496 309.705, 496.900 311.505, 498 312.500 C 499.100 313.495, 500 315.295, 500 316.500 C 500 317.705, 500.900 319.505, 502 320.500 C 503.100 321.495, 504 323.295, 504 324.500 C 504 325.705, 504.900 327.505, 506 328.500 C 507.100 329.495, 508 331.295, 508 332.500 C 508 333.705, 508.900 335.505, 510 336.500 C 511.100 337.495, 512 339.274, 512 340.452 C 512 341.633, 513.794 344.346, 516 346.500 C 518.206 348.654, 520 351.367, 520 352.548 C 520 353.726, 520.900 355.505, 522 356.500 C 523.100 357.495, 524 359.295, 524 360.500 C 524 361.705, 524.900 363.505, 526 364.500 C 527.100 365.495, 528 367.295, 528 368.500 C 528 369.705, 528.900 371.505, 530 372.500 C 531.100 373.495, 532 375.295, 532 376.500 C 532 377.705, 532.900 379.505, 534 380.500 C 535.100 381.495, 536 383.295, 536 384.500 C 536 385.705, 536.900 387.505, 538 388.500 C 539.100 389.495, 540 391.295, 540 392.500 C 540 393.705, 540.900 395.505, 542 396.500 C 543.100 397.495, 544 399.295, 544 400.500 C 544 401.705, 544.900 403.505, 546 404.500 C 547.100 405.495, 548 407.295, 548 408.500 C 548 409.705, 548.900 411.505, 550 412.500 C 551.100 413.495, 552 415.295, 552 416.500 C 552 417.705, 552.900 419.505, 554 420.500 C 555.100 421.495, 556 423.295, 556 424.500 C 556 425.705, 556.900 427.505, 558 428.500 C 559.100 429.495, 560 431.274, 560 432.452 C 560 433.633, 561.794 436.346, 564 438.500 C 566.206 440.654, 568 443.367, 568 444.548 C 568 445.726, 568.900 447.505, 570 448.500 C 571.100 449.495, 572 451.295, 572 452.500 C 572 453.705, 572.900 455.505, 574 456.500 C 575.100 457.495, 576 459.295, 576 460.500 C 576 461.705, 576.900 463.505, 578 464.500 C 579.100 465.495, 580 467.295, 580 468.500 C 580 469.705, 580.900 471.505, 582 472.500 C 583.100 473.495, 584 475.295, 584 476.500 C 584 477.705, 584.900 479.505, 586 480.500 C 587.100 481.495, 588 483.295, 588 484.500 C 588 485.705, 588.900 487.505, 590 488.500 C 591.100 489.495, 592 491.295, 592 492.500 C 592 493.705, 592.900 495.505, 594 496.500 C 595.100 497.495, 596 499.295, 596 500.500 C 596 501.705, 596.900 503.505, 598 504.500 C 599.100 505.495, 600 507.295, 600 508.500 C 600 509.705, 600.900 511.505, 602 512.500 C 603.100 513.495, 604 515.277, 604 516.459 C 604 519.139, 609.902 525, 612.601 525 C 615.188 525, 621 519.019, 621 516.357 C 621 515.231, 621.900 513.495, 623 512.500 C 624.100 511.505, 625 509.705, 625 508.500 C 625 507.295, 625.900 505.495, 627 504.500 C 628.100 503.505, 629 501.726, 629 500.548 C 629 499.367, 630.794 496.654, 633 494.500 C 635.206 492.346, 637 489.633, 637 488.452 C 637 487.274, 637.900 485.495, 639 484.500 C 640.100 483.505, 641 481.726, 641 480.548 C 641 479.367, 642.794 476.654, 645 474.500 C 647.206 472.346, 649 469.633, 649 468.452 C 649 467.274, 649.900 465.495, 651 464.500 C 652.100 463.505, 653 461.705, 653 460.500 C 653 459.295, 653.900 457.495, 655 456.500 C 656.100 455.505, 657 453.726, 657 452.548 C 657 451.367, 658.794 448.654, 661 446.500 C 663.206 444.346, 665 441.633, 665 440.452 C 665 439.274, 665.900 437.495, 667 436.500 C 668.100 435.505, 669 433.726, 669 432.548 C 669 431.367, 670.794 428.654, 673 426.500 C 675.206 424.346, 677 421.633, 677 420.452 C 677 419.274, 677.900 417.495, 679 416.500 C 680.690 414.971, 681 413.420, 681 406.500 C 681 399.580, 680.690 398.029, 679 396.500 C 677.606 395.239, 677 393.420, 677 390.500 C 677 387.580, 676.394 385.761, 675 384.500 C 673.900 383.505, 673 381.705, 673 380.500 C 673 379.295, 672.100 377.495, 671 376.500 C 669.900 375.505, 669 373.726, 669 372.548 C 669 371.367, 667.206 368.654, 665 366.500 C 662.794 364.346, 661 361.633, 661 360.452 C 661 359.274, 660.100 357.495, 659 356.500 C 657.606 355.239, 657 353.420, 657 350.500 C 657 347.580, 656.394 345.761, 655 344.500 C 653.900 343.505, 653 341.705, 653 340.500 C 653 339.295, 652.100 337.495, 651 336.500 C 649.900 335.505, 649 333.705, 649 332.500 C 649 331.295, 648.100 329.495, 647 328.500 C 645.900 327.505, 645 325.726, 645 324.548 C 645 323.367, 643.206 320.654, 641 318.500 C 638.794 316.346, 637 313.633, 637 312.452 C 637 311.274, 636.100 309.495, 635 308.500 C 633.900 307.505, 633 305.705, 633 304.500 C 633 303.295, 632.100 301.495, 631 300.500 C 629.900 299.505, 629 297.705, 629 296.500 C 629 295.295, 628.100 293.495, 627 292.500 C 625.900 291.505, 625 289.705, 625 288.500 C 625 287.295, 624.100 285.495, 623 284.500 C 621.900 283.505, 621 281.705, 621 280.500 C 621 279.295, 620.100 277.495, 619 276.500 C 617.900 275.505, 617 273.705, 617 272.500 C 617 271.295, 616.100 269.495, 615 268.500 C 613.900 267.505, 613 265.705, 613 264.500 C 613 263.295, 612.100 261.495, 611 260.500 C 609.900 259.505, 609 257.705, 609 256.500 C 609 255.295, 608.100 253.495, 607 252.500 C 605.900 251.505, 605 249.705, 605 248.500 C 605 247.295, 604.100 245.495, 603 244.500 C 601.900 243.505, 601 241.726, 601 240.548 C 601 239.367, 599.206 236.654, 597 234.500 C 594.794 232.346, 593 229.633, 593 228.452 C 593 227.274, 592.100 225.495, 591 224.500 C 589.900 223.505, 589 221.705, 589 220.500 C 589 219.295, 588.100 217.495, 587 216.500 C 585.900 215.505, 585 213.705, 585 212.500 C 585 211.295, 584.100 209.495, 583 208.500 C 581.900 207.505, 581 205.705, 581 204.500 C 581 203.295, 580.100 201.495, 579 200.500 C 577.900 199.505, 577 197.705, 577 196.500 C 577 195.295, 576.100 193.495, 575 192.500 C 573.900 191.505, 573 189.705, 573 188.500 C 573 187.295, 572.100 185.495, 571 184.500 C 569.900 183.505, 569 181.705, 569 180.500 C 569 179.295, 568.100 177.495, 567 176.500 C 565.900 175.505, 565 173.705, 565 172.500 C 565 171.295, 564.100 169.495, 563 168.500 C 561.900 167.505, 561 165.705, 561 164.500 C 561 163.295, 560.100 161.495, 559 160.500 C 557.900 159.505, 557 157.740, 557 156.579 C 557 153.764, 535.250 132, 532.437 132 C 531.320 132, 528.648 130.200, 526.500 128 C 524.346 125.794, 521.633 124, 520.452 124 C 519.274 124, 517.495 123.100, 516.500 122 C 515.239 120.606, 513.420 120, 510.500 120 C 507.580 120, 505.761 119.394, 504.500 118 C 503.239 116.606, 501.420 116, 498.500 116 C 495.580 116, 493.761 115.394, 492.500 114 C 490.785 112.105, 489.420 112, 466.500 112 C 443.580 112, 442.215 112.105, 440.500 114 M 912.500 238 C 910.778 239.903, 909.420 240, 884.500 240 C 859.580 240, 858.222 240.097, 856.500 242 C 855.239 243.394, 853.420 244, 850.500 244 C 847.580 244, 845.761 244.606, 844.500 246 C 843.239 247.394, 841.420 248, 838.500 248 C 835.580 248, 833.761 248.606, 832.500 250 C 831.505 251.100, 829.705 252, 828.500 252 C 827.295 252, 825.495 252.900, 824.500 254 C 823.505 255.100, 821.705 256, 820.500 256 C 819.295 256, 817.495 256.900, 816.500 258 C 815.505 259.100, 813.726 260, 812.548 260 C 811.367 260, 808.654 261.794, 806.500 264 C 804.352 266.200, 801.667 268, 800.535 268 C 797.741 268, 768 297.763, 768 300.559 C 768 301.678, 766.200 304.352, 764 306.500 C 761.800 308.648, 760 311.348, 760 312.500 C 760 313.652, 758.200 316.352, 756 318.500 C 753.800 320.648, 752 323.348, 752 324.500 C 752 325.652, 750.200 328.352, 748 330.500 C 745.794 332.654, 744 335.367, 744 336.548 C 744 337.726, 743.100 339.505, 742 340.500 C 740.900 341.495, 740 343.274, 740 344.452 C 740 345.633, 738.206 348.346, 736 350.500 C 733.794 352.654, 732 355.367, 732 356.548 C 732 357.726, 731.100 359.505, 730 360.500 C 728.900 361.495, 728 363.295, 728 364.500 C 728 365.705, 727.100 367.505, 726 368.500 C 724.900 369.495, 724 371.274, 724 372.452 C 724 373.633, 722.206 376.346, 720 378.500 C 717.794 380.654, 716 383.367, 716 384.548 C 716 385.726, 715.100 387.505, 714 388.500 C 712.900 389.495, 712 391.295, 712 392.500 C 712 393.705, 711.100 395.505, 710 396.500 C 708.900 397.495, 708 399.295, 708 400.500 C 708 401.705, 707.100 403.505, 706 404.500 C 704.900 405.495, 704 407.295, 704 408.500 C 704 409.705, 703.100 411.505, 702 412.500 C 700.900 413.495, 700 415.295, 700 416.500 C 700 417.705, 699.100 419.505, 698 420.500 C 696.606 421.761, 696 423.580, 696 426.500 C 696 429.420, 695.394 431.239, 694 432.500 C 692.410 433.939, 692 435.580, 692 440.500 C 692 445.420, 691.590 447.061, 690 448.500 C 688.105 450.215, 688 451.580, 688 474.500 C 688 497.420, 688.105 498.785, 690 500.500 C 691.590 501.939, 692 503.580, 692 508.500 C 692 513.420, 692.410 515.061, 694 516.500 C 695.100 517.495, 696 519.295, 696 520.500 C 696 521.705, 696.900 523.505, 698 524.500 C 699.100 525.495, 700 527.295, 700 528.500 C 700 529.705, 700.900 531.505, 702 532.500 C 703.100 533.495, 704 535.274, 704 536.452 C 704 537.633, 705.794 540.346, 708 542.500 C 710.200 544.648, 712 547.334, 712 548.469 C 712 551.225, 733.789 573, 736.547 573 C 737.684 573, 741.150 575.615, 744.500 579 C 748.053 582.591, 751.291 585, 752.564 585 C 753.733 585, 755.505 585.900, 756.500 587 C 757.495 588.100, 759.295 589, 760.500 589 C 761.705 589, 763.505 589.900, 764.500 591 C 765.761 592.394, 767.580 593, 770.500 593 C 773.420 593, 775.239 593.606, 776.500 595 C 777.761 596.394, 779.580 597, 782.500 597 C 785.420 597, 787.239 597.606, 788.500 599 C 789.939 600.590, 791.580 601, 796.500 601 C 801.420 601, 803.061 601.410, 804.500 603 C 806.148 604.821, 807.580 605, 820.500 605 C 833.420 605, 834.852 605.179, 836.500 607 C 838.279 608.966, 839.580 609, 912.500 609 C 985.420 609, 986.721 608.966, 988.500 607 C 989.756 605.612, 991.580 605, 994.459 605 C 997.839 605, 999.200 604.389, 1001.804 601.702 C 1003.562 599.889, 1005 597.483, 1005 596.357 C 1005 595.231, 1005.900 593.495, 1007 592.500 C 1008.100 591.505, 1009 589.726, 1009 588.548 C 1009 587.367, 1010.794 584.654, 1013 582.500 C 1015.206 580.346, 1017 577.633, 1017 576.452 C 1017 575.274, 1017.900 573.495, 1019 572.500 C 1020.100 571.505, 1021 569.705, 1021 568.500 C 1021 567.295, 1021.900 565.495, 1023 564.500 C 1024.100 563.505, 1025 561.726, 1025 560.548 C 1025 559.367, 1026.794 556.654, 1029 554.500 C 1031.206 552.346, 1033 549.633, 1033 548.452 C 1033 547.274, 1033.900 545.495, 1035 544.500 C 1036.100 543.505, 1037 541.726, 1037 540.548 C 1037 539.367, 1038.794 536.654, 1041 534.500 C 1043.206 532.346, 1045 529.633, 1045 528.452 C 1045 527.274, 1045.900 525.495, 1047 524.500 C 1048.100 523.505, 1049 521.705, 1049 520.500 C 1049 519.295, 1049.900 517.495, 1051 516.500 C 1052.100 515.505, 1053 513.726, 1053 512.548 C 1053 511.367, 1054.794 508.654, 1057 506.500 L 1060.999 502.595 1057.804 499.297 L 1054.608 496 954.459 496 C 855.580 496, 854.287 495.975, 852.500 494 C 850.971 492.310, 849.420 492, 842.500 492 C 835.580 492, 834.029 491.690, 832.500 490 C 831.239 488.606, 829.420 488, 826.500 488 C 823.580 488, 821.761 487.394, 820.500 486 C 819.239 484.606, 817.420 484, 814.500 484 C 811.580 484, 809.761 483.394, 808.500 482 C 807.505 480.900, 805.705 480, 804.500 480 C 803.295 480, 801.495 479.100, 800.500 478 C 799.505 476.900, 797.733 476, 796.564 476 C 795.291 476, 792.053 473.591, 788.500 470 C 785.070 466.533, 781.694 464, 780.504 464 C 777.813 464, 765 451.131, 765 448.428 C 765 447.316, 763.200 444.648, 761 442.500 C 758.800 440.352, 757 437.652, 757 436.500 C 757 435.348, 755.200 432.648, 753 430.500 C 749.606 427.186, 749 425.967, 749 422.452 C 749 419.580, 748.387 417.755, 747 416.500 C 745.140 414.816, 745 413.420, 745 396.500 C 745 379.580, 745.140 378.184, 747 376.500 C 748.100 375.505, 749 373.730, 749 372.557 C 749 369.827, 757.882 361, 760.629 361 C 761.763 361, 763.505 360.100, 764.500 359 C 765.495 357.900, 767.295 357, 768.500 357 C 769.705 357, 771.505 356.100, 772.500 355 C 773.939 353.410, 775.580 353, 780.500 353 C 785.420 353, 787.061 352.590, 788.500 351 C 790.291 349.021, 791.580 349, 908.455 349 C 999.012 349, 1026.880 348.720, 1027.800 347.800 C 1028.703 346.897, 1029 333.688, 1029 294.496 L 1029 242.392 1025.702 239.196 L 1022.405 236 968.357 236 C 915.580 236, 914.267 236.047, 912.500 238 M 716.500 682 C 714.971 683.690, 713.420 684, 706.500 684 C 699.580 684, 698.029 684.310, 696.500 686 C 695.505 687.100, 693.705 688, 692.500 688 C 691.295 688, 689.495 688.900, 688.500 690 C 687.505 691.100, 685.726 692, 684.548 692 C 683.367 692, 680.654 693.794, 678.500 696 C 676.352 698.200, 673.649 700, 672.493 700 C 669.855 700, 664 705.924, 664 708.595 C 664 709.694, 662.200 712.352, 660 714.500 C 657.794 716.654, 656 719.367, 656 720.548 C 656 721.726, 655.100 723.505, 654 724.500 C 652.900 725.495, 652 727.295, 652 728.500 C 652 729.705, 651.100 731.505, 650 732.500 C 648.606 733.761, 648 735.580, 648 738.500 C 648 741.420, 647.394 743.239, 646 744.500 C 644.097 746.222, 644 747.580, 644 772.500 C 644 797.420, 644.097 798.778, 646 800.500 C 647.590 801.939, 648 803.580, 648 808.500 C 648 813.420, 648.410 815.061, 650 816.500 C 651.100 817.495, 652 819.274, 652 820.452 C 652 821.633, 653.794 824.346, 656 826.500 C 658.200 828.648, 660 831.316, 660 832.429 C 660 835.155, 673.805 849, 676.522 849 C 677.662 849, 680.352 850.800, 682.500 853 C 684.654 855.206, 687.367 857, 688.548 857 C 689.726 857, 691.505 857.900, 692.500 859 C 693.939 860.590, 695.580 861, 700.500 861 C 705.420 861, 707.061 861.410, 708.500 863 C 710.184 864.860, 711.580 865, 728.500 865 C 745.420 865, 746.816 864.860, 748.500 863 C 749.761 861.606, 751.580 861, 754.500 861 C 757.420 861, 759.239 860.394, 760.500 859 C 761.495 857.900, 763.295 857, 764.500 857 C 765.705 857, 767.505 856.100, 768.500 855 C 769.495 853.900, 771.262 853, 772.425 853 C 775.259 853, 793 835.225, 793 832.386 C 793 831.244, 793.900 829.495, 795 828.500 C 796.100 827.505, 797 825.705, 797 824.500 C 797 823.295, 797.900 821.495, 799 820.500 C 800.394 819.239, 801 817.420, 801 814.500 C 801 811.580, 801.606 809.761, 803 808.500 C 805.890 805.884, 805.466 802.844, 801.702 799.196 C 798.737 796.322, 797.800 796, 792.399 796 C 786.917 796, 786.113 796.288, 783.196 799.298 C 781.438 801.111, 780 803.517, 780 804.643 C 780 805.769, 779.100 807.505, 778 808.500 C 776.900 809.495, 776 811.274, 776 812.452 C 776 813.633, 774.206 816.346, 772 818.500 C 769.800 820.648, 768 823.302, 768 824.398 C 768 827.093, 763.138 832, 760.468 832 C 759.281 832, 757.495 832.900, 756.500 834 C 755.505 835.100, 753.705 836, 752.500 836 C 751.295 836, 749.495 836.900, 748.500 838 C 747.239 839.394, 745.420 840, 742.500 840 C 739.580 840, 737.761 840.606, 736.500 842 C 735.061 843.590, 733.420 844, 728.500 844 C 723.580 844, 721.939 843.590, 720.500 842 C 719.061 840.410, 717.420 840, 712.500 840 C 707.580 840, 705.939 839.590, 704.500 838 C 703.505 836.900, 701.740 836, 700.578 836 C 699.224 836, 694.614 832.136, 687.733 825.234 C 677.603 815.072, 677 814.238, 677 810.389 C 677 807.580, 676.377 805.746, 675 804.500 C 673.606 803.239, 673 801.420, 673 798.500 C 673 795.580, 672.394 793.761, 671 792.500 C 669.140 790.816, 669 789.420, 669 772.500 C 669 755.580, 669.140 754.184, 671 752.500 C 672.394 751.239, 673 749.420, 673 746.500 C 673 743.580, 673.606 741.761, 675 740.500 C 676.100 739.505, 677 737.705, 677 736.500 C 677 735.295, 677.900 733.495, 679 732.500 C 680.100 731.505, 681 729.735, 681 728.568 C 681 725.778, 693.820 713, 696.620 713 C 697.759 713, 699.505 712.100, 700.500 711 C 701.761 709.606, 703.580 709, 706.500 709 C 709.420 709, 711.239 708.394, 712.500 707 C 714.121 705.208, 715.580 705, 726.500 705 C 737.420 705, 738.879 705.208, 740.500 707 C 741.761 708.394, 743.580 709, 746.500 709 C 749.420 709, 751.239 709.606, 752.500 711 C 753.495 712.100, 755.244 713, 756.385 713 C 757.657 713, 761.855 716.378, 767.230 721.729 C 775.394 729.855, 776 730.740, 776 734.533 C 776 737.829, 776.630 739.218, 779.298 741.804 C 782.560 744.966, 782.702 745, 792.598 745 C 799.044 745, 803.027 744.573, 803.800 743.800 C 805.618 741.982, 805.239 738.526, 803 736.500 C 801.606 735.239, 801 733.420, 801 730.500 C 801 727.580, 800.394 725.761, 799 724.500 C 797.900 723.505, 797 721.705, 797 720.500 C 797 719.295, 796.100 717.495, 795 716.500 C 793.900 715.505, 793 713.758, 793 712.619 C 793 709.847, 779.233 696, 776.478 696 C 775.338 696, 772.648 694.200, 770.500 692 C 767.186 688.606, 765.967 688, 762.452 688 C 759.580 688, 757.755 687.387, 756.500 686 C 755.061 684.410, 753.420 684, 748.500 684 C 743.580 684, 741.939 683.590, 740.500 682 C 738.916 680.249, 737.420 680, 728.500 680 C 719.580 680, 718.084 680.249, 716.500 682 M 105.200 685.200 C 103.461 686.939, 103.461 858.061, 105.200 859.800 C 105.975 860.575, 109.979 861, 116.504 861 L 126.608 861 129.804 857.702 L 133 854.405 133 796.517 C 133 739.689, 132.963 738.589, 130.967 736.465 C 129.159 734.541, 129.104 734.159, 130.467 733.028 C 132.402 731.421, 132.404 730.104, 130.475 727.972 C 129.140 726.497, 129.132 726.136, 130.411 725.074 C 132.478 723.359, 136 725.412, 136 728.332 C 136 729.653, 137.664 732.218, 140 734.500 C 142.200 736.648, 144 739.348, 144 740.500 C 144 741.652, 145.800 744.352, 148 746.500 C 150.200 748.648, 152 751.341, 152 752.484 C 152 753.698, 154.496 757.032, 158 760.500 C 161.504 763.968, 164 767.302, 164 768.516 C 164 769.659, 165.800 772.352, 168 774.500 C 170.200 776.648, 172 779.341, 172 780.484 C 172 781.698, 174.496 785.032, 178 788.500 C 181.504 791.968, 184 795.302, 184 796.516 C 184 797.659, 185.800 800.352, 188 802.500 C 190.200 804.648, 192 807.341, 192 808.484 C 192 809.698, 194.496 813.032, 198 816.500 C 201.504 819.968, 204 823.302, 204 824.516 C 204 825.659, 205.800 828.352, 208 830.500 C 210.200 832.648, 212 835.341, 212 836.484 C 212 837.698, 214.496 841.032, 218 844.500 C 221.517 847.980, 224 851.300, 224 852.523 C 224 853.669, 225.484 856.046, 227.298 857.804 L 230.595 861 242.598 861 C 250.599 861, 255 860.600, 255.800 859.800 C 257.539 858.061, 257.539 686.939, 255.800 685.200 C 254.015 683.415, 234.605 683.566, 233.102 685.377 C 232.269 686.381, 231.976 704.548, 232.021 752.405 C 232.056 788.512, 231.809 818.500, 231.473 819.044 C 230.517 820.591, 229 819.118, 229 816.644 C 229 815.351, 227.312 812.757, 225 810.500 C 222.800 808.352, 221 805.659, 221 804.516 C 221 803.302, 218.504 799.968, 215 796.500 C 211.525 793.061, 209 789.695, 209 788.500 C 209 787.305, 206.475 783.939, 203 780.500 C 199.496 777.032, 197 773.698, 197 772.484 C 197 771.341, 195.200 768.648, 193 766.500 C 190.800 764.352, 189 761.659, 189 760.516 C 189 759.302, 186.504 755.968, 183 752.500 C 179.496 749.032, 177 745.698, 177 744.484 C 177 743.341, 175.200 740.648, 173 738.500 C 170.800 736.352, 169 733.659, 169 732.516 C 169 731.302, 166.504 727.968, 163 724.500 C 159.496 721.032, 157 717.698, 157 716.484 C 157 715.341, 155.200 712.648, 153 710.500 C 150.800 708.352, 149 705.652, 149 704.500 C 149 703.348, 147.200 700.648, 145 698.500 C 142.800 696.352, 141 693.649, 141 692.493 C 141 691.338, 139.516 688.954, 137.702 687.196 L 134.405 684 120.402 684 C 110.845 684, 106.019 684.381, 105.200 685.200 M 1061.138 685.333 C 1060.401 686.221, 1059.943 696.158, 1059.766 715.083 L 1059.500 743.500 1057 743.789 C 1055.076 744.011, 1053.126 742.687, 1048.531 738.039 C 1043.149 732.594, 1042.157 732, 1038.436 732 C 1035.580 732, 1033.753 731.384, 1032.500 730 C 1030.852 728.179, 1029.420 728, 1016.500 728 C 1003.580 728, 1002.148 728.179, 1000.500 730 C 999.239 731.394, 997.420 732, 994.500 732 C 991.580 732, 989.761 732.606, 988.500 734 C 987.505 735.100, 985.732 736, 984.561 736 C 981.845 736, 972 745.859, 972 748.578 C 972 749.687, 970.200 752.352, 968 754.500 C 964.606 757.814, 964 759.033, 964 762.548 C 964 765.420, 963.387 767.245, 962 768.500 C 960.410 769.939, 960 771.580, 960 776.500 C 960 781.420, 959.590 783.061, 958 784.500 C 956.249 786.084, 956 787.580, 956 796.500 C 956 805.420, 956.249 806.916, 958 808.500 C 959.590 809.939, 960 811.580, 960 816.500 C 960 821.420, 960.410 823.061, 962 824.500 C 963.100 825.495, 964 827.295, 964 828.500 C 964 829.705, 964.900 831.505, 966 832.500 C 967.100 833.495, 968 835.262, 968 836.425 C 968 839.259, 985.775 857, 988.614 857 C 989.756 857, 991.505 857.900, 992.500 859 C 993.495 860.100, 995.295 861, 996.500 861 C 997.705 861, 999.505 861.900, 1000.500 863 C 1002.121 864.792, 1003.580 865, 1014.500 865 C 1025.420 865, 1026.879 864.792, 1028.500 863 C 1029.761 861.606, 1031.580 861, 1034.500 861 C 1037.420 861, 1039.239 860.394, 1040.500 859 C 1041.495 857.900, 1043.267 857, 1044.436 857 C 1045.707 857, 1048.938 854.600, 1052.468 851.032 C 1057.006 846.447, 1058.677 845.317, 1059.687 846.155 C 1061.528 847.683, 1061.360 848.418, 1058.360 851.984 L 1055.720 855.121 1059.110 858.020 C 1062.229 860.687, 1063.143 860.922, 1070.554 860.959 C 1078.374 860.999, 1078.701 860.904, 1081.804 857.702 L 1085 854.405 1085 832.357 C 1085 811.580, 1084.885 810.206, 1083 808.500 C 1081.055 806.740, 1081 805.420, 1081 760.500 C 1081 715.580, 1081.055 714.260, 1083 712.500 C 1084.750 710.917, 1085 709.420, 1085 700.541 L 1085 690.392 1081.702 687.196 C 1078.546 684.137, 1078.058 684, 1070.325 684 C 1064.811 684, 1061.893 684.424, 1061.138 685.333 M 437.200 697.200 C 436.381 698.019, 436 702.843, 436 712.395 C 436 726.221, 435.967 726.425, 433.313 729.195 C 430.801 731.817, 430.096 732, 422.513 732 C 417.536 732, 413.936 732.464, 413.200 733.200 C 411.497 734.903, 411.587 750.412, 413.308 751.840 C 414.027 752.437, 419.315 753.055, 425.058 753.213 L 435.500 753.500 435.761 796.105 C 436.012 837.189, 436.092 838.773, 438.011 840.510 C 439.105 841.500, 440 843.242, 440 844.381 C 440 845.615, 442.924 849.397, 447.225 853.726 L 454.450 861 472.525 861 C 485.250 861, 490.955 860.645, 491.800 859.800 C 493.413 858.187, 493.413 842.813, 491.800 841.200 C 491.024 840.424, 487.012 840, 480.455 840 C 471.678 840, 470.073 839.738, 468.551 838.056 C 467.584 836.987, 465.601 835.975, 464.146 835.806 L 461.500 835.500 461.500 794.500 L 461.500 753.500 475.932 753.221 C 484.491 753.056, 490.900 752.498, 491.682 751.849 C 493.412 750.413, 493.511 734.911, 491.800 733.200 C 490.999 732.399, 486.575 732, 478.487 732 C 466.521 732, 466.342 731.966, 463.687 729.195 C 461.033 726.425, 461 726.221, 461 712.395 C 461 702.843, 460.619 698.019, 459.800 697.200 C 459.025 696.425, 455.022 696, 448.500 696 C 441.978 696, 437.975 696.425, 437.200 697.200 M 320.500 730 C 319.505 731.100, 317.705 732, 316.500 732 C 315.295 732, 313.495 732.900, 312.500 734 C 311.505 735.100, 309.740 736, 308.579 736 C 305.724 736, 284 757.752, 284 760.611 C 284 761.754, 283.100 763.505, 282 764.500 C 280.606 765.761, 280 767.580, 280 770.500 C 280 773.420, 279.394 775.239, 278 776.500 C 276.140 778.184, 276 779.580, 276 796.500 C 276 813.420, 276.140 814.816, 278 816.500 C 279.394 817.761, 280 819.580, 280 822.500 C 280 825.420, 280.606 827.239, 282 828.500 C 283.100 829.495, 284 831.262, 284 832.425 C 284 835.219, 301.772 853, 304.566 853 C 305.681 853, 308.352 854.800, 310.500 857 C 314.219 860.809, 314.700 861, 320.548 861 C 325.420 861, 327.064 861.414, 328.500 863 C 330.121 864.792, 331.580 865, 342.500 865 C 353.420 865, 354.879 864.792, 356.500 863 C 357.761 861.606, 359.580 861, 362.500 861 C 365.420 861, 367.239 860.394, 368.500 859 C 369.495 857.900, 371.274 857, 372.452 857 C 373.633 857, 376.346 855.206, 378.500 853 C 380.648 850.800, 383.351 849, 384.507 849 C 387.168 849, 393 843.066, 393 840.357 C 393 839.231, 393.900 837.495, 395 836.500 C 396.100 835.505, 397 833.705, 397 832.500 C 397 831.295, 397.900 829.495, 399 828.500 C 400.394 827.239, 401 825.420, 401 822.500 C 401 819.580, 401.606 817.761, 403 816.500 C 404.874 814.804, 405 813.420, 405 794.500 C 405 775.580, 404.874 774.196, 403 772.500 C 401.613 771.245, 401 769.420, 401 766.548 C 401 763.033, 400.394 761.814, 397 758.500 C 394.800 756.352, 393 753.658, 393 752.513 C 393 749.815, 383.096 740, 380.374 740 C 379.239 740, 377.495 739.100, 376.500 738 C 375.505 736.900, 373.705 736, 372.500 736 C 371.295 736, 369.495 735.100, 368.500 734 C 367.505 732.900, 365.705 732, 364.500 732 C 363.295 732, 361.495 731.100, 360.500 730 C 358.816 728.140, 357.420 728, 340.500 728 C 323.580 728, 322.184 728.140, 320.500 730 M 548.500 730 C 547.239 731.394, 545.420 732, 542.500 732 C 539.580 732, 537.761 732.606, 536.500 734 C 535.505 735.100, 533.736 736, 532.570 736 C 529.807 736, 516 749.807, 516 752.571 C 516 753.684, 514.200 756.352, 512 758.500 C 508.606 761.814, 508 763.033, 508 766.548 C 508 769.420, 507.387 771.245, 506 772.500 C 504.114 774.206, 504 775.580, 504 796.500 C 504 817.420, 504.114 818.794, 506 820.500 C 507.100 821.495, 508 823.295, 508 824.500 C 508 825.705, 508.900 827.505, 510 828.500 C 511.100 829.495, 512 831.295, 512 832.500 C 512 833.705, 512.900 835.505, 514 836.500 C 515.100 837.495, 516 839.268, 516 840.439 C 516 843.184, 525.867 853, 528.626 853 C 529.761 853, 531.505 853.900, 532.500 855 C 533.495 856.100, 535.295 857, 536.500 857 C 537.705 857, 539.505 857.900, 540.500 859 C 541.761 860.394, 543.580 861, 546.500 861 C 549.420 861, 551.239 861.606, 552.500 863 C 554.121 864.792, 555.580 865, 566.500 865 C 577.420 865, 578.879 864.792, 580.500 863 C 581.936 861.414, 583.580 861, 588.452 861 C 594.300 861, 594.781 860.809, 598.500 857 C 600.648 854.800, 603.342 853, 604.487 853 C 607.185 853, 617 843.096, 617 840.374 C 617 839.239, 617.900 837.495, 619 836.500 C 620.100 835.505, 621 833.705, 621 832.500 C 621 831.295, 621.900 829.495, 623 828.500 C 625.890 825.884, 625.466 822.844, 621.702 819.196 C 618.740 816.324, 617.797 816, 612.418 816 C 606.517 816, 606.357 816.075, 601.216 821.281 C 598.347 824.186, 596 827.466, 596 828.569 C 596 831.186, 587.033 840, 584.371 840 C 583.237 840, 581.495 840.900, 580.500 842 C 578.916 843.751, 577.420 844, 568.500 844 C 559.580 844, 558.084 843.751, 556.500 842 C 555.505 840.900, 553.705 840, 552.500 840 C 551.295 840, 549.495 839.100, 548.500 838 C 547.505 836.900, 545.772 836, 544.650 836 C 541.916 836, 537 831.160, 537 828.468 C 537 827.281, 536.100 825.495, 535 824.500 C 533.900 823.505, 533 821.705, 533 820.500 C 533 819.295, 532.079 817.476, 530.953 816.458 C 529.352 815.009, 528.971 813.615, 529.203 810.053 L 529.500 805.500 575.910 805.240 C 608.149 805.059, 622.729 804.640, 623.660 803.867 C 624.679 803.021, 625 798.874, 625 786.533 C 625 771.580, 624.843 770.168, 623 768.500 C 621.900 767.505, 621 765.705, 621 764.500 C 621 763.295, 620.100 761.495, 619 760.500 C 617.900 759.505, 617 757.738, 617 756.575 C 617 753.741, 599.225 736, 596.386 736 C 595.244 736, 593.495 735.100, 592.500 734 C 591.239 732.606, 589.420 732, 586.500 732 C 583.580 732, 581.761 731.394, 580.500 730 C 578.852 728.179, 577.420 728, 564.500 728 C 551.580 728, 550.148 728.179, 548.500 730 M 864.500 730 C 863.239 731.394, 861.420 732, 858.500 732 C 855.580 732, 853.761 732.606, 852.500 734 C 851.505 735.100, 849.740 736, 848.579 736 C 845.724 736, 824 757.752, 824 760.611 C 824 761.754, 823.100 763.505, 822 764.500 C 820.410 765.939, 820 767.580, 820 772.500 C 820 777.420, 819.590 779.061, 818 780.500 C 816.179 782.148, 816 783.580, 816 796.500 C 816 809.420, 816.179 810.852, 818 812.500 C 819.590 813.939, 820 815.580, 820 820.500 C 820 825.420, 820.410 827.061, 822 828.500 C 823.100 829.495, 824 831.260, 824 832.421 C 824 835.276, 845.752 857, 848.611 857 C 849.754 857, 851.505 857.900, 852.500 859 C 853.761 860.394, 855.580 861, 858.500 861 C 861.420 861, 863.239 861.606, 864.500 863 C 866.148 864.821, 867.580 865, 880.500 865 C 893.420 865, 894.852 864.821, 896.500 863 C 897.761 861.606, 899.580 861, 902.500 861 C 905.420 861, 907.239 860.394, 908.500 859 C 909.495 857.900, 911.274 857, 912.452 857 C 913.633 857, 916.346 855.206, 918.500 853 C 920.648 850.800, 923.350 849, 924.503 849 C 927.180 849, 929 847.180, 929 844.503 C 929 843.350, 930.800 840.648, 933 838.500 C 935.206 836.346, 937 833.633, 937 832.452 C 937 831.274, 937.900 829.495, 939 828.500 C 940.394 827.239, 941 825.420, 941 822.500 C 941 819.580, 941.606 817.761, 943 816.500 C 944.874 814.804, 945 813.420, 945 794.500 C 945 775.580, 944.874 774.196, 943 772.500 C 941.613 771.245, 941 769.420, 941 766.548 C 941 763.033, 940.394 761.814, 937 758.500 C 934.800 756.352, 933 753.649, 933 752.493 C 933 749.855, 927.076 744, 924.405 744 C 923.306 744, 920.648 742.200, 918.500 740 C 916.346 737.794, 913.633 736, 912.452 736 C 911.274 736, 909.495 735.100, 908.500 734 C 907.505 732.900, 905.705 732, 904.500 732 C 903.295 732, 901.495 731.100, 900.500 730 C 898.832 728.157, 897.420 728, 882.500 728 C 867.580 728, 866.168 728.157, 864.500 730 M 1144.500 730 C 1143.239 731.394, 1141.420 732, 1138.500 732 C 1135.580 732, 1133.761 732.606, 1132.500 734 C 1131.505 735.100, 1129.738 736, 1128.575 736 C 1125.741 736, 1108 753.775, 1108 756.614 C 1108 757.756, 1107.100 759.505, 1106 760.500 C 1104.900 761.495, 1104 763.295, 1104 764.500 C 1104 765.705, 1103.100 767.505, 1102 768.500 C 1100.410 769.939, 1100 771.580, 1100 776.500 C 1100 781.420, 1099.590 783.061, 1098 784.500 C 1096.310 786.029, 1096 787.580, 1096 794.500 C 1096 801.420, 1096.310 802.971, 1098 804.500 C 1099.690 806.029, 1100 807.580, 1100 814.500 C 1100 821.420, 1100.310 822.971, 1102 824.500 C 1103.100 825.495, 1104 827.295, 1104 828.500 C 1104 829.705, 1104.900 831.505, 1106 832.500 C 1107.100 833.495, 1108 835.262, 1108 836.425 C 1108 839.259, 1125.775 857, 1128.614 857 C 1129.756 857, 1131.505 857.900, 1132.500 859 C 1133.761 860.394, 1135.580 861, 1138.500 861 C 1141.420 861, 1143.239 861.606, 1144.500 863 C 1146.148 864.821, 1147.580 865, 1160.500 865 C 1173.420 865, 1174.852 864.821, 1176.500 863 C 1177.761 861.606, 1179.580 861, 1182.500 861 C 1185.420 861, 1187.239 860.394, 1188.500 859 C 1189.495 857.900, 1191.260 857, 1192.421 857 C 1193.780 857, 1198.537 852.984, 1205.766 845.734 C 1216.430 835.040, 1217 834.260, 1217 830.356 C 1217 827.210, 1217.528 825.886, 1219.250 824.720 L 1221.500 823.196 1218.054 819.598 C 1214.652 816.046, 1214.503 816, 1206.500 816 C 1198.663 816, 1198.288 816.108, 1195.258 819.250 C 1192.866 821.730, 1192.050 823.566, 1191.812 827 C 1191.534 831.005, 1191.214 831.533, 1188.902 831.802 C 1187.474 831.968, 1184.570 833.880, 1182.450 836.052 C 1180.329 838.223, 1177.630 840, 1176.452 840 C 1175.274 840, 1173.495 840.900, 1172.500 842 C 1170.916 843.751, 1169.420 844, 1160.500 844 C 1151.580 844, 1150.084 843.751, 1148.500 842 C 1147.505 840.900, 1145.735 840, 1144.568 840 C 1141.778 840, 1129 827.180, 1129 824.380 C 1129 823.241, 1128.081 821.479, 1126.959 820.463 C 1125.229 818.898, 1124.962 817.613, 1125.209 812.058 L 1125.500 805.500 1171.910 805.240 C 1204.149 805.059, 1218.729 804.640, 1219.660 803.867 C 1220.665 803.033, 1221 799.202, 1221 788.533 C 1221 775.580, 1220.821 774.148, 1219 772.500 C 1217.613 771.245, 1217 769.420, 1217 766.548 C 1217 763.033, 1216.394 761.814, 1213 758.500 C 1210.800 756.352, 1209 753.684, 1209 752.571 C 1209 749.807, 1195.193 736, 1192.430 736 C 1191.264 736, 1189.495 735.100, 1188.500 734 C 1187.239 732.606, 1185.420 732, 1182.500 732 C 1179.580 732, 1177.761 731.394, 1176.500 730 C 1174.852 728.179, 1173.420 728, 1160.500 728 C 1147.580 728, 1146.148 728.179, 1144.500 730 M 328.500 751 C 327.505 752.100, 325.705 753, 324.500 753 C 323.295 753, 321.495 753.900, 320.500 755 C 319.505 756.100, 317.772 757, 316.650 757 C 313.916 757, 309 761.840, 309 764.532 C 309 765.719, 308.100 767.505, 307 768.500 C 305.606 769.761, 305 771.580, 305 774.500 C 305 777.420, 304.394 779.239, 303 780.500 C 301.208 782.121, 301 783.580, 301 794.500 C 301 805.420, 301.208 806.879, 303 808.500 C 304.394 809.761, 305 811.580, 305 814.500 C 305 817.420, 305.606 819.239, 307 820.500 C 308.100 821.495, 309 823.265, 309 824.432 C 309 825.724, 311.649 829.183, 315.775 833.277 C 321.909 839.363, 322.936 840, 326.620 840 C 329.420 840, 331.255 840.624, 332.500 842 C 334.029 843.690, 335.580 844, 342.500 844 C 349.420 844, 350.971 843.690, 352.500 842 C 353.495 840.900, 355.295 840, 356.500 840 C 357.705 840, 359.505 839.100, 360.500 838 C 361.495 836.900, 363.281 836, 364.468 836 C 367.160 836, 372 831.084, 372 828.350 C 372 827.228, 372.900 825.495, 374 824.500 C 375.100 823.505, 376 821.705, 376 820.500 C 376 819.295, 376.900 817.495, 378 816.500 C 379.860 814.816, 380 813.420, 380 796.500 C 380 779.580, 379.860 778.184, 378 776.500 C 376.900 775.505, 376 773.705, 376 772.500 C 376 771.295, 375.100 769.495, 374 768.500 C 372.900 767.505, 372 765.730, 372 764.557 C 372 763.334, 369.959 760.415, 367.216 757.712 C 363.096 753.655, 361.867 753, 358.371 753 C 355.580 753, 353.744 752.374, 352.500 751 C 350.916 749.249, 349.420 749, 340.500 749 C 331.580 749, 330.084 749.249, 328.500 751 M 552.500 751 C 551.505 752.100, 549.735 753, 548.568 753 C 545.778 753, 533 765.820, 533 768.620 C 533 769.759, 532.079 771.524, 530.953 772.542 C 529.352 773.991, 528.971 775.385, 529.203 778.947 L 529.500 783.500 564.500 783.500 L 599.500 783.500 599.791 776.942 C 600.038 771.387, 599.771 770.102, 598.041 768.537 C 596.919 767.521, 596 765.730, 596 764.557 C 596 761.827, 587.118 753, 584.371 753 C 583.237 753, 581.495 752.100, 580.500 751 C 578.879 749.208, 577.420 749, 566.500 749 C 555.580 749, 554.121 749.208, 552.500 751 M 868.500 751 C 867.505 752.100, 865.705 753, 864.500 753 C 863.295 753, 861.518 753.875, 860.551 754.944 C 859.584 756.013, 857.601 757.025, 856.146 757.194 C 854.140 757.426, 853.427 758.129, 853.198 760.098 C 853.032 761.526, 851.120 764.430, 848.948 766.550 C 845.198 770.213, 845 770.713, 845 776.548 C 845 781.420, 844.586 783.064, 843 784.500 C 841.310 786.029, 841 787.580, 841 794.500 C 841 801.420, 841.310 802.971, 843 804.500 C 844.590 805.939, 845 807.580, 845 812.500 C 845 817.420, 845.410 819.061, 847 820.500 C 848.100 821.495, 849 823.265, 849 824.432 C 849 827.222, 861.820 840, 864.620 840 C 865.759 840, 867.505 840.900, 868.500 842 C 870.084 843.751, 871.580 844, 880.500 844 C 889.420 844, 890.916 843.751, 892.500 842 C 893.495 840.900, 895.262 840, 896.426 840 C 897.756 840, 901.784 836.743, 907.271 831.230 C 915.380 823.083, 916 822.171, 916 818.385 C 916 815.580, 916.623 813.746, 918 812.500 C 919.821 810.852, 920 809.420, 920 796.500 C 920 783.580, 919.821 782.148, 918 780.500 C 916.606 779.239, 916 777.420, 916 774.500 C 916 771.580, 915.394 769.761, 914 768.500 C 912.900 767.505, 912 765.719, 912 764.532 C 912 761.840, 907.084 757, 904.350 757 C 903.228 757, 901.495 756.100, 900.500 755 C 899.505 753.900, 897.705 753, 896.500 753 C 895.295 753, 893.495 752.100, 892.500 751 C 890.916 749.249, 889.420 749, 880.500 749 C 871.580 749, 870.084 749.249, 868.500 751 M 1008.500 751 C 1007.505 752.100, 1005.735 753, 1004.568 753 C 1001.778 753, 989 765.820, 989 768.620 C 989 769.759, 988.100 771.505, 987 772.500 C 985.126 774.196, 985 775.580, 985 794.500 C 985 813.420, 985.126 814.804, 987 816.500 C 988.100 817.495, 989 819.295, 989 820.500 C 989 821.705, 989.900 823.505, 991 824.500 C 992.100 825.495, 993 827.270, 993 828.443 C 993 831.173, 1001.882 840, 1004.629 840 C 1005.763 840, 1007.505 840.900, 1008.500 842 C 1010.084 843.751, 1011.580 844, 1020.500 844 C 1029.420 844, 1030.916 843.751, 1032.500 842 C 1033.495 840.900, 1035.265 840, 1036.432 840 C 1039.222 840, 1052 827.180, 1052 824.380 C 1052 823.241, 1052.900 821.495, 1054 820.500 C 1055.590 819.061, 1056 817.420, 1056 812.500 C 1056 807.580, 1056.410 805.939, 1058 804.500 C 1059.590 803.061, 1060 801.420, 1060 796.500 C 1060 791.580, 1059.590 789.939, 1058 788.500 C 1056.410 787.061, 1056 785.420, 1056 780.500 C 1056 775.580, 1055.590 773.939, 1054 772.500 C 1052.900 771.505, 1052 769.705, 1052 768.500 C 1052 767.295, 1051.125 765.518, 1050.056 764.551 C 1048.987 763.584, 1047.975 761.601, 1047.806 760.146 C 1047.572 758.126, 1046.874 757.428, 1044.854 757.194 C 1043.399 757.025, 1041.416 756.013, 1040.449 754.944 C 1039.482 753.875, 1037.705 753, 1036.500 753 C 1035.295 753, 1033.495 752.100, 1032.500 751 C 1030.916 749.249, 1029.420 749, 1020.500 749 C 1011.580 749, 1010.084 749.249, 1008.500 751 M 1148.500 751 C 1147.505 752.100, 1145.705 753, 1144.500 753 C 1143.295 753, 1141.495 753.900, 1140.500 755 C 1139.505 756.100, 1137.772 757, 1136.650 757 C 1133.916 757, 1129 761.840, 1129 764.532 C 1129 765.719, 1128.081 767.521, 1126.959 768.537 C 1125.229 770.102, 1124.962 771.387, 1125.209 776.942 L 1125.500 783.500 1160.500 783.500 L 1195.500 783.500 1195.797 778.947 C 1196.029 775.385, 1195.648 773.991, 1194.047 772.542 C 1192.921 771.524, 1192 769.735, 1192 768.568 C 1192 765.778, 1179.180 753, 1176.380 753 C 1175.241 753, 1173.495 752.100, 1172.500 751 C 1170.916 749.249, 1169.420 749, 1160.500 749 C 1151.580 749, 1150.084 749.249, 1148.500 751"/>
  </g>
</svg>
