<svg xmlns="http://www.w3.org/2000/svg" viewBox="0 0 967 234" role="img" aria-labelledby="notecode-logo-horizontal-white-title">
  <title id="notecode-logo-horizontal-white-title">NoteCode</title>
  <g transform="scale(0.25)" fill="#fff" fill-rule="evenodd">
    <path d="M 352.500 114 C 350.971 115.690, 349.420 116, 342.500 116 C 335.580 116, 334.029 116.310, 332.500 118 C 331.239 119.394, 329.420 120, 326.500 120 C 323.580 120, 321.761 120.606, 320.500 122 C 319.239 123.394, 317.420 124, 314.500 124 C 311.580 124, 309.761 124.606, 308.500 126 C 307.505 127.100, 305.705 128, 304.500 128 C 303.295 128, 301.495 128.900, 300.500 130 C 299.505 131.100, 297.726 132, 296.548 132 C 295.367 132, 292.654 133.794, 290.500 136 C 288.352 138.200, 285.652 140, 284.500 140 C 283.348 140, 280.648 141.800, 278.500 144 C 276.352 146.200, 273.662 148, 272.524 148 C 271.265 148, 267.335 151.137, 262.500 156 C 257.704 160.824, 253.731 164, 252.492 164 C 251.307 164, 247.924 166.540, 244.500 170 C 241.076 173.460, 237.693 176, 236.508 176 C 235.269 176, 231.296 179.176, 226.500 184 C 221.744 188.784, 217.727 192, 216.508 192 C 215.234 192, 209.977 196.503, 202.500 204 C 194.993 211.527, 189.768 216, 188.484 216 C 187.309 216, 183.909 218.555, 180.500 222 C 177.085 225.451, 173.692 228, 172.513 228 C 171.247 228, 166.652 231.825, 160.500 238 C 154.409 244.114, 149.748 248, 148.507 248 C 145.698 248, 116 277.790, 116 280.607 C 116 281.753, 115.100 283.505, 114 284.500 C 112.015 286.296, 112 287.580, 112 454.455 C 112 583.901, 112.276 622.876, 113.200 623.800 C 114.936 625.536, 258.064 625.536, 259.800 623.800 C 260.724 622.876, 261 582.123, 261 446.455 C 261 271.580, 261.014 270.297, 263 268.500 C 264.886 266.794, 265 265.420, 265 244.500 C 265 223.795, 265.130 222.192, 266.944 220.551 C 268.013 219.584, 269.025 217.601, 269.194 216.146 C 269.426 214.140, 270.129 213.427, 272.098 213.198 C 273.526 213.032, 276.430 211.120, 278.550 208.948 L 282.406 205 294.548 205 C 305.420 205, 306.879 205.209, 308.500 207 C 309.495 208.100, 311.295 209, 312.500 209 C 313.705 209, 315.505 209.900, 316.500 211 C 317.495 212.100, 319.274 213, 320.452 213 C 321.633 213, 324.346 214.794, 326.500 217 C 328.648 219.200, 331.339 221, 332.480 221 C 335.186 221, 348 233.857, 348 236.572 C 348 237.684, 349.800 240.352, 352 242.500 C 354.206 244.654, 356 247.367, 356 248.548 C 356 249.726, 356.900 251.505, 358 252.500 C 359.100 253.495, 360 255.295, 360 256.500 C 360 257.705, 360.900 259.505, 362 260.500 C 363.100 261.495, 364 263.295, 364 264.500 C 364 265.705, 364.900 267.505, 366 268.500 C 367.100 269.495, 368 271.295, 368 272.500 C 368 273.705, 368.900 275.505, 370 276.500 C 371.100 277.495, 372 279.274, 372 280.452 C 372 281.633, 373.794 284.346, 376 286.500 C 378.206 288.654, 380 291.367, 380 292.548 C 380 293.726, 380.900 295.505, 382 296.500 C 383.100 297.495, 384 299.295, 384 300.500 C 384 301.705, 384.900 303.505, 386 304.500 C 387.100 305.495, 388 307.295, 388 308.500 C 388 309.705, 388.900 311.505, 390 312.500 C 391.100 313.495, 392 315.295, 392 316.500 C 392 317.705, 392.900 319.505, 394 320.500 C 395.100 321.495, 396 323.295, 396 324.500 C 396 325.705, 396.900 327.505, 398 328.500 C 399.100 329.495, 400 331.295, 400 332.500 C 400 333.705, 400.900 335.505, 402 336.500 C 403.100 337.495, 404 339.274, 404 340.452 C 404 341.633, 405.794 344.346, 408 346.500 C 410.206 348.654, 412 351.367, 412 352.548 C 412 353.726, 412.900 355.505, 414 356.500 C 415.100 357.495, 416 359.295, 416 360.500 C 416 361.705, 416.900 363.505, 418 364.500 C 419.100 365.495, 420 367.295, 420 368.500 C 420 369.705, 420.900 371.505, 422 372.500 C 423.100 373.495, 424 375.295, 424 376.500 C 424 377.705, 424.900 379.505, 426 380.500 C 427.100 381.495, 428 383.295, 428 384.500 C 428 385.705, 428.900 387.505, 430 388.500 C 431.100 389.495, 432 391.295, 432 392.500 C 432 393.705, 432.900 395.505, 434 396.500 C 435.100 397.495, 436 399.295, 436 400.500 C 436 401.705, 436.900 403.505, 438 404.500 C 439.100 405.495, 440 407.295, 440 408.500 C 440 409.705, 440.900 411.505, 442 412.500 C 443.100 413.495, 444 415.274, 444 416.452 C 444 417.633, 445.794 420.346, 448 422.500 C 450.206 424.654, 452 427.367, 452 428.548 C 452 429.726, 452.900 431.505, 454 432.500 C 455.100 433.495, 456 435.295, 456 436.500 C 456 437.705, 456.900 439.505, 458 440.500 C 459.100 441.495, 460 443.295, 460 444.500 C 460 445.705, 460.900 447.505, 462 448.500 C 463.100 449.495, 464 451.295, 464 452.500 C 464 453.705, 464.900 455.505, 466 456.500 C 467.100 457.495, 468 459.295, 468 460.500 C 468 461.705, 468.900 463.505, 470 464.500 C 471.100 465.495, 472 467.295, 472 468.500 C 472 469.705, 472.900 471.505, 474 472.500 C 475.100 473.495, 476 475.295, 476 476.500 C 476 477.705, 476.900 479.505, 478 480.500 C 479.100 481.495, 480 483.295, 480 484.500 C 480 485.705, 480.900 487.505, 482 488.500 C 483.100 489.495, 484 491.295, 484 492.500 C 484 493.705, 484.900 495.505, 486 496.500 C 487.100 497.495, 488 499.295, 488 500.500 C 488 501.705, 488.900 503.505, 490 504.500 C 491.100 505.495, 492 507.295, 492 508.500 C 492 509.705, 492.900 511.505, 494 512.500 C 495.100 513.495, 496 515.295, 496 516.500 C 496 517.705, 496.900 519.505, 498 520.500 C 499.100 521.495, 500 523.295, 500 524.500 C 500 525.705, 500.900 527.505, 502 528.500 C 503.100 529.495, 504 531.295, 504 532.500 C 504 533.705, 504.900 535.505, 506 536.500 C 507.100 537.495, 508 539.295, 508 540.500 C 508 541.705, 508.900 543.505, 510 544.500 C 511.100 545.495, 512 547.274, 512 548.452 C 512 549.633, 513.794 552.346, 516 554.500 C 518.206 556.654, 520 559.367, 520 560.548 C 520 561.726, 520.900 563.505, 522 564.500 C 523.100 565.495, 524 567.295, 524 568.500 C 524 569.705, 524.900 571.505, 526 572.500 C 527.100 573.495, 528 575.295, 528 576.500 C 528 577.705, 528.900 579.505, 530 580.500 C 531.100 581.495, 532 583.295, 532 584.500 C 532 585.705, 532.900 587.505, 534 588.500 C 535.100 589.495, 536 591.295, 536 592.500 C 536 593.705, 536.900 595.505, 538 596.500 C 539.100 597.495, 540 599.295, 540 600.500 C 540 601.705, 540.900 603.505, 542 604.500 C 543.100 605.495, 544 607.295, 544 608.500 C 544 609.705, 544.900 611.505, 546 612.500 C 547.100 613.495, 548 615.295, 548 616.500 C 548 617.705, 548.900 619.505, 550 620.500 C 551.100 621.495, 552 623.295, 552 624.500 C 552 625.705, 552.900 627.505, 554 628.500 C 555.100 629.495, 556 631.295, 556 632.500 C 556 633.705, 556.900 635.505, 558 636.500 C 559.100 637.495, 560 639.295, 560 640.500 C 560 641.705, 560.900 643.505, 562 644.500 C 563.100 645.495, 564 647.295, 564 648.500 C 564 649.705, 564.900 651.505, 566 652.500 C 567.100 653.495, 568 655.295, 568 656.500 C 568 657.705, 568.900 659.505, 570 660.500 C 571.100 661.495, 572 663.295, 572 664.500 C 572 665.705, 572.900 667.505, 574 668.500 C 575.100 669.495, 576 671.274, 576 672.452 C 576 673.633, 577.794 676.346, 580 678.500 C 583.394 681.814, 584 683.033, 584 686.548 C 584 689.420, 584.613 691.245, 586 692.500 C 587.100 693.495, 588 695.295, 588 696.500 C 588 697.705, 588.900 699.505, 590 700.500 C 591.100 701.495, 592 703.277, 592 704.459 C 592 707.129, 597.898 713, 600.582 713 C 603.194 713, 613 703.030, 613 700.374 C 613 699.239, 613.900 697.495, 615 696.500 C 616.100 695.505, 617 693.726, 617 692.548 C 617 691.367, 618.794 688.654, 621 686.500 C 623.206 684.346, 625 681.633, 625 680.452 C 625 679.274, 625.900 677.495, 627 676.500 C 628.100 675.505, 629 673.705, 629 672.500 C 629 671.295, 629.900 669.495, 631 668.500 C 632.100 667.505, 633 665.726, 633 664.548 C 633 663.367, 634.794 660.654, 637 658.500 C 639.206 656.346, 641 653.633, 641 652.452 C 641 651.274, 641.900 649.495, 643 648.500 C 644.100 647.505, 645 645.705, 645 644.500 C 645 643.295, 645.900 641.495, 647 640.500 C 648.100 639.505, 649 637.726, 649 636.548 C 649 635.367, 650.794 632.654, 653 630.500 C 655.206 628.346, 657 625.633, 657 624.452 C 657 623.274, 657.900 621.495, 659 620.500 C 660.100 619.505, 661 617.726, 661 616.548 C 661 615.367, 662.794 612.654, 665 610.500 C 667.206 608.346, 669 605.633, 669 604.452 C 669 603.274, 669.900 601.495, 671 600.500 C 672.100 599.505, 673 597.705, 673 596.500 C 673 595.295, 673.900 593.495, 675 592.500 C 676.100 591.505, 677 589.726, 677 588.548 C 677 587.367, 678.794 584.654, 681 582.500 C 683.206 580.346, 685 577.633, 685 576.452 C 685 575.274, 685.900 573.495, 687 572.500 C 688.100 571.505, 689 569.726, 689 568.548 C 689 567.367, 690.794 564.654, 693 562.500 C 695.206 560.346, 697 557.633, 697 556.452 C 697 555.274, 697.900 553.495, 699 552.500 C 700.100 551.505, 701 549.705, 701 548.500 C 701 547.295, 701.900 545.495, 703 544.500 C 704.394 543.239, 705 541.420, 705 538.500 C 705 535.580, 704.394 533.761, 703 532.500 C 701.606 531.239, 701 529.420, 701 526.500 C 701 523.580, 700.394 521.761, 699 520.500 C 697.900 519.505, 697 517.705, 697 516.500 C 697 515.295, 696.100 513.495, 695 512.500 C 693.900 511.505, 693 509.705, 693 508.500 C 693 507.295, 692.100 505.495, 691 504.500 C 689.900 503.505, 689 501.705, 689 500.500 C 689 499.295, 688.100 497.495, 687 496.500 C 685.900 495.505, 685 493.705, 685 492.500 C 685 491.295, 684.100 489.495, 683 488.500 C 681.900 487.505, 681 485.705, 681 484.500 C 681 483.295, 680.100 481.495, 679 480.500 C 677.900 479.505, 677 477.705, 677 476.500 C 677 475.295, 676.100 473.495, 675 472.500 C 673.900 471.505, 673 469.705, 673 468.500 C 673 467.295, 672.100 465.495, 671 464.500 C 669.900 463.505, 669 461.705, 669 460.500 C 669 459.295, 668.100 457.495, 667 456.500 C 665.900 455.505, 665 453.705, 665 452.500 C 665 451.295, 664.100 449.495, 663 448.500 C 661.900 447.505, 661 445.705, 661 444.500 C 661 443.295, 660.100 441.495, 659 440.500 C 657.900 439.505, 657 437.705, 657 436.500 C 657 435.295, 656.100 433.495, 655 432.500 C 653.900 431.505, 653 429.705, 653 428.500 C 653 427.295, 652.100 425.495, 651 424.500 C 649.900 423.505, 649 421.705, 649 420.500 C 649 419.295, 648.100 417.495, 647 416.500 C 645.900 415.505, 645 413.705, 645 412.500 C 645 411.295, 644.100 409.495, 643 408.500 C 641.900 407.505, 641 405.726, 641 404.548 C 641 403.367, 639.206 400.654, 637 398.500 C 633.621 395.200, 633 393.959, 633 390.500 C 633 387.041, 632.379 385.800, 629 382.500 C 625.606 379.186, 625 377.967, 625 374.452 C 625 371.580, 624.387 369.755, 623 368.500 C 621.900 367.505, 621 365.705, 621 364.500 C 621 363.295, 620.100 361.495, 619 360.500 C 617.900 359.505, 617 357.726, 617 356.548 C 617 355.367, 615.206 352.654, 613 350.500 C 609.621 347.200, 609 345.959, 609 342.500 C 609 339.041, 608.379 337.800, 605 334.500 C 602.794 332.346, 601 329.633, 601 328.452 C 601 327.274, 600.100 325.495, 599 324.500 C 597.900 323.505, 597 321.705, 597 320.500 C 597 319.295, 596.100 317.495, 595 316.500 C 593.900 315.505, 593 313.705, 593 312.500 C 593 311.295, 592.100 309.495, 591 308.500 C 589.900 307.505, 589 305.705, 589 304.500 C 589 303.295, 588.100 301.495, 587 300.500 C 585.900 299.505, 585 297.705, 585 296.500 C 585 295.295, 584.100 293.495, 583 292.500 C 581.900 291.505, 581 289.705, 581 288.500 C 581 287.295, 580.100 285.495, 579 284.500 C 577.900 283.505, 577 281.705, 577 280.500 C 577 279.295, 576.100 277.495, 575 276.500 C 573.900 275.505, 573 273.705, 573 272.500 C 573 271.295, 572.100 269.495, 571 268.500 C 569.900 267.505, 569 265.705, 569 264.500 C 569 263.295, 568.100 261.495, 567 260.500 C 565.900 259.505, 565 257.705, 565 256.500 C 565 255.295, 564.100 253.495, 563 252.500 C 561.900 251.505, 561 249.726, 561 248.548 C 561 247.367, 559.206 244.654, 557 242.500 C 554.794 240.346, 553 237.633, 553 236.452 C 553 235.274, 552.100 233.495, 551 232.500 C 549.900 231.505, 549 229.705, 549 228.500 C 549 227.295, 548.100 225.495, 547 224.500 C 545.900 223.505, 545 221.705, 545 220.500 C 545 219.295, 544.100 217.495, 543 216.500 C 541.900 215.505, 541 213.705, 541 212.500 C 541 211.295, 540.100 209.495, 539 208.500 C 537.900 207.505, 537 205.705, 537 204.500 C 537 203.295, 536.100 201.495, 535 200.500 C 533.900 199.505, 533 197.705, 533 196.500 C 533 195.295, 532.100 193.495, 531 192.500 C 529.900 191.505, 529 189.705, 529 188.500 C 529 187.295, 528.100 185.495, 527 184.500 C 525.900 183.505, 525 181.726, 525 180.548 C 525 179.367, 523.206 176.654, 521 174.500 C 518.800 172.352, 517 169.666, 517 168.531 C 517 165.775, 495.211 144, 492.453 144 C 491.316 144, 487.850 141.385, 484.500 138 C 480.947 134.409, 477.709 132, 476.436 132 C 475.267 132, 473.495 131.100, 472.500 130 C 471.505 128.900, 469.705 128, 468.500 128 C 467.295 128, 465.495 127.100, 464.500 126 C 463.239 124.606, 461.420 124, 458.500 124 C 455.580 124, 453.761 123.394, 452.500 122 C 451.239 120.606, 449.420 120, 446.500 120 C 443.580 120, 441.761 119.394, 440.500 118 C 438.971 116.310, 437.420 116, 430.500 116 C 423.580 116, 422.029 115.690, 420.500 114 C 418.761 112.079, 417.420 112, 386.500 112 C 355.580 112, 354.239 112.079, 352.500 114 M 988.500 294 C 986.916 295.751, 985.420 296, 976.500 296 C 967.580 296, 966.084 296.249, 964.500 298 C 963.061 299.590, 961.420 300, 956.500 300 C 951.580 300, 949.939 300.410, 948.500 302 C 947.239 303.394, 945.420 304, 942.500 304 C 939.580 304, 937.761 304.606, 936.500 306 C 935.239 307.394, 933.420 308, 930.500 308 C 927.580 308, 925.761 308.606, 924.500 310 C 923.505 311.100, 921.705 312, 920.500 312 C 919.295 312, 917.495 312.900, 916.500 314 C 915.505 315.100, 913.705 316, 912.500 316 C 911.295 316, 909.495 316.900, 908.500 318 C 907.505 319.100, 905.705 320, 904.500 320 C 903.295 320, 901.495 320.900, 900.500 322 C 899.505 323.100, 897.726 324, 896.548 324 C 895.367 324, 892.654 325.794, 890.500 328 C 888.352 330.200, 885.659 332, 884.516 332 C 883.302 332, 879.968 334.496, 876.500 338 C 873.146 341.389, 869.685 344, 868.545 344 C 865.787 344, 840 369.762, 840 372.517 C 840 373.691, 837.442 377.094, 834 380.500 C 830.496 383.968, 828 387.302, 828 388.516 C 828 389.659, 826.200 392.352, 824 394.500 C 821.800 396.648, 820 399.348, 820 400.500 C 820 401.652, 818.200 404.352, 816 406.500 C 813.800 408.648, 812 411.348, 812 412.500 C 812 413.652, 810.200 416.352, 808 418.500 C 805.794 420.654, 804 423.367, 804 424.548 C 804 425.726, 803.100 427.505, 802 428.500 C 800.900 429.495, 800 431.274, 800 432.452 C 800 433.633, 798.206 436.346, 796 438.500 C 793.794 440.654, 792 443.367, 792 444.548 C 792 445.726, 791.100 447.505, 790 448.500 C 788.900 449.495, 788 451.274, 788 452.452 C 788 453.633, 786.206 456.346, 784 458.500 C 781.794 460.654, 780 463.367, 780 464.548 C 780 465.726, 779.100 467.505, 778 468.500 C 776.900 469.495, 776 471.274, 776 472.452 C 776 473.633, 774.206 476.346, 772 478.500 C 769.794 480.654, 768 483.367, 768 484.548 C 768 485.726, 767.100 487.505, 766 488.500 C 764.900 489.495, 764 491.274, 764 492.452 C 764 493.633, 762.206 496.346, 760 498.500 C 757.794 500.654, 756 503.367, 756 504.548 C 756 505.726, 755.100 507.505, 754 508.500 C 752.900 509.495, 752 511.274, 752 512.452 C 752 513.633, 750.206 516.346, 748 518.500 C 745.794 520.654, 744 523.367, 744 524.548 C 744 525.726, 743.100 527.505, 742 528.500 C 740.900 529.495, 740 531.295, 740 532.500 C 740 533.705, 739.100 535.505, 738 536.500 C 736.900 537.495, 736 539.295, 736 540.500 C 736 541.705, 735.100 543.505, 734 544.500 C 732.900 545.495, 732 547.295, 732 548.500 C 732 549.705, 731.100 551.505, 730 552.500 C 728.606 553.761, 728 555.580, 728 558.500 C 728 561.420, 727.394 563.239, 726 564.500 C 724.606 565.761, 724 567.580, 724 570.500 C 724 573.420, 723.394 575.239, 722 576.500 C 720.606 577.761, 720 579.580, 720 582.500 C 720 585.420, 719.394 587.239, 718 588.500 C 716.249 590.084, 716 591.580, 716 600.500 C 716 609.420, 715.751 610.916, 714 612.500 C 712.114 614.206, 712 615.580, 712 636.500 C 712 657.420, 712.114 658.794, 714 660.500 C 715.751 662.084, 716 663.580, 716 672.500 C 716 681.420, 716.249 682.916, 718 684.500 C 719.394 685.761, 720 687.580, 720 690.500 C 720 693.420, 720.606 695.239, 722 696.500 C 723.100 697.495, 724 699.295, 724 700.500 C 724 701.705, 724.900 703.505, 726 704.500 C 727.394 705.761, 728 707.580, 728 710.500 C 728 713.420, 728.606 715.239, 730 716.500 C 731.100 717.495, 732 719.274, 732 720.452 C 732 721.633, 733.794 724.346, 736 726.500 C 738.200 728.648, 740 731.348, 740 732.500 C 740 733.652, 741.800 736.352, 744 738.500 C 746.200 740.648, 748 743.331, 748 744.463 C 748 747.271, 785.746 785, 788.556 785 C 789.677 785, 792.352 786.800, 794.500 789 C 796.654 791.206, 799.367 793, 800.548 793 C 801.726 793, 803.505 793.900, 804.500 795 C 805.495 796.100, 807.274 797, 808.452 797 C 809.633 797, 812.346 798.794, 814.500 801 C 816.654 803.206, 819.367 805, 820.548 805 C 821.726 805, 823.505 805.900, 824.500 807 C 825.761 808.394, 827.580 809, 830.500 809 C 833.420 809, 835.239 809.606, 836.500 811 C 837.761 812.394, 839.580 813, 842.500 813 C 845.420 813, 847.239 813.606, 848.500 815 C 849.495 816.100, 851.295 817, 852.500 817 C 853.705 817, 855.505 817.900, 856.500 819 C 857.939 820.590, 859.580 821, 864.500 821 C 869.420 821, 871.061 821.410, 872.500 823 C 874.029 824.690, 875.580 825, 882.500 825 C 889.420 825, 890.971 825.310, 892.500 827 C 894.293 828.981, 895.580 829, 1028.430 829 L 1162.550 829 1169.775 821.726 C 1173.965 817.508, 1177 813.603, 1177 812.429 C 1177 811.316, 1178.800 808.648, 1181 806.500 C 1183.206 804.346, 1185 801.633, 1185 800.452 C 1185 799.274, 1185.900 797.495, 1187 796.500 C 1188.100 795.505, 1189 793.705, 1189 792.500 C 1189 791.295, 1189.900 789.495, 1191 788.500 C 1192.100 787.505, 1193 785.726, 1193 784.548 C 1193 783.367, 1194.794 780.654, 1197 778.500 C 1199.206 776.346, 1201 773.633, 1201 772.452 C 1201 771.274, 1201.900 769.495, 1203 768.500 C 1204.100 767.505, 1205 765.726, 1205 764.548 C 1205 763.367, 1206.794 760.654, 1209 758.500 C 1211.206 756.346, 1213 753.633, 1213 752.452 C 1213 751.274, 1213.900 749.495, 1215 748.500 C 1216.100 747.505, 1217 745.726, 1217 744.548 C 1217 743.367, 1218.794 740.654, 1221 738.500 C 1223.206 736.346, 1225 733.633, 1225 732.452 C 1225 731.274, 1225.900 729.495, 1227 728.500 C 1228.100 727.505, 1229 725.726, 1229 724.548 C 1229 723.367, 1230.794 720.654, 1233 718.500 C 1235.206 716.346, 1237 713.633, 1237 712.452 C 1237 711.274, 1237.900 709.495, 1239 708.500 C 1240.100 707.505, 1241 705.726, 1241 704.548 C 1241 703.367, 1242.794 700.654, 1245 698.500 C 1247.206 696.346, 1249 693.633, 1249 692.452 C 1249 691.274, 1249.900 689.495, 1251 688.500 C 1252.100 687.505, 1253 685.690, 1253 684.467 C 1253 683.244, 1254.013 681.554, 1255.250 680.711 L 1257.500 679.178 1252.034 673.589 L 1246.568 668 1096.439 668 C 947.580 668, 946.295 667.983, 944.500 666 C 942.971 664.310, 941.420 664, 934.500 664 C 927.580 664, 926.029 663.690, 924.500 662 C 923.239 660.606, 921.420 660, 918.500 660 C 915.580 660, 913.761 659.394, 912.500 658 C 911.239 656.606, 909.420 656, 906.500 656 C 903.580 656, 901.761 655.394, 900.500 654 C 899.505 652.900, 897.705 652, 896.500 652 C 895.295 652, 893.495 651.100, 892.500 650 C 891.239 648.606, 889.420 648, 886.500 648 C 883.580 648, 881.761 647.394, 880.500 646 C 879.505 644.900, 877.726 644, 876.548 644 C 875.367 644, 872.654 642.206, 870.500 640 C 868.352 637.800, 865.652 636, 864.500 636 C 863.348 636, 860.648 634.200, 858.500 632 C 856.352 629.800, 853.666 628, 852.533 628 C 849.765 628, 825 603.223, 825 600.455 C 825 599.315, 822.389 595.853, 819 592.500 C 815.409 588.947, 813 585.709, 813 584.436 C 813 583.267, 812.100 581.495, 811 580.500 C 809.900 579.505, 809 577.705, 809 576.500 C 809 575.295, 808.100 573.495, 807 572.500 C 805.900 571.505, 805 569.705, 805 568.500 C 805 567.295, 804.100 565.495, 803 564.500 C 801.606 563.239, 801 561.420, 801 558.500 C 801 555.580, 800.394 553.761, 799 552.500 C 797.410 551.061, 797 549.420, 797 544.500 C 797 539.580, 796.590 537.939, 795 536.500 C 793.157 534.832, 793 533.420, 793 518.500 C 793 503.580, 793.157 502.168, 795 500.500 C 796.387 499.245, 797 497.420, 797 494.548 C 797 491.033, 797.606 489.814, 801 486.500 C 803.200 484.352, 805 481.645, 805 480.484 C 805 477.831, 809.938 473, 812.650 473 C 813.772 473, 815.505 472.100, 816.500 471 C 817.495 469.900, 819.295 469, 820.500 469 C 821.705 469, 823.505 468.100, 824.500 467 C 825.495 465.900, 827.295 465, 828.500 465 C 829.705 465, 831.505 464.100, 832.500 463 C 833.761 461.606, 835.580 461, 838.500 461 C 841.420 461, 843.239 460.394, 844.500 459 C 845.939 457.410, 847.580 457, 852.500 457 C 857.420 457, 859.061 456.590, 860.500 455 C 862.297 453.015, 863.580 453, 1034.455 453 C 1167.012 453, 1206.876 452.724, 1207.800 451.800 C 1208.473 451.127, 1209 447.901, 1209 444.455 C 1209 439.580, 1209.413 437.936, 1211 436.500 C 1212.949 434.736, 1213 433.420, 1213 384.500 C 1213 335.451, 1212.954 334.269, 1210.984 332.486 L 1208.969 330.662 1210.984 328.517 C 1212.807 326.577, 1213 325.031, 1213 312.382 L 1213 298.392 1209.702 295.196 L 1206.405 292 1098.357 292 C 991.580 292, 990.289 292.024, 988.500 294 M 2716.500 294 C 2714.971 295.690, 2713.420 296, 2706.500 296 C 2699.580 296, 2698.029 296.310, 2696.500 298 C 2695.239 299.394, 2693.420 300, 2690.500 300 C 2687.580 300, 2685.761 300.606, 2684.500 302 C 2683.239 303.394, 2681.420 304, 2678.500 304 C 2675.580 304, 2673.761 304.606, 2672.500 306 C 2671.505 307.100, 2669.705 308, 2668.500 308 C 2667.295 308, 2665.495 308.900, 2664.500 310 C 2663.505 311.100, 2661.705 312, 2660.500 312 C 2659.295 312, 2657.495 312.900, 2656.500 314 C 2655.505 315.100, 2653.733 316, 2652.564 316 C 2651.291 316, 2648.053 318.409, 2644.500 322 C 2641.089 325.447, 2637.691 328, 2636.515 328 C 2633.774 328, 2612 349.802, 2612 352.547 C 2612 353.684, 2609.385 357.150, 2606 360.500 C 2602.496 363.968, 2600 367.302, 2600 368.516 C 2600 369.659, 2598.200 372.352, 2596 374.500 C 2593.794 376.654, 2592 379.367, 2592 380.548 C 2592 381.726, 2591.100 383.505, 2590 384.500 C 2588.900 385.495, 2588 387.295, 2588 388.500 C 2588 389.705, 2587.100 391.505, 2586 392.500 C 2584.606 393.761, 2584 395.580, 2584 398.500 C 2584 401.420, 2583.394 403.239, 2582 404.500 C 2580.606 405.761, 2580 407.580, 2580 410.500 C 2580 413.420, 2579.394 415.239, 2578 416.500 C 2576.410 417.939, 2576 419.580, 2576 424.500 C 2576 429.420, 2575.590 431.061, 2574 432.500 C 2572.249 434.084, 2572 435.580, 2572 444.500 C 2572 453.420, 2571.751 454.916, 2570 456.500 C 2568.105 458.215, 2568 459.580, 2568 482.500 C 2568 505.420, 2568.105 506.785, 2570 508.500 C 2571.751 510.084, 2572 511.580, 2572 520.500 C 2572 529.420, 2572.249 530.916, 2574 532.500 C 2575.590 533.939, 2576 535.580, 2576 540.500 C 2576 545.420, 2576.410 547.061, 2578 548.500 C 2579.590 549.939, 2580 551.580, 2580 556.500 C 2580 561.420, 2580.410 563.061, 2582 564.500 C 2583.100 565.495, 2584 567.295, 2584 568.500 C 2584 569.705, 2584.900 571.505, 2586 572.500 C 2587.100 573.495, 2588 575.295, 2588 576.500 C 2588 577.705, 2588.900 579.505, 2590 580.500 C 2591.100 581.495, 2592 583.295, 2592 584.500 C 2592 585.705, 2592.900 587.505, 2594 588.500 C 2595.100 589.495, 2596 591.274, 2596 592.452 C 2596 593.633, 2597.794 596.346, 2600 598.500 C 2602.200 600.648, 2604 603.338, 2604 604.476 C 2604 605.735, 2607.137 609.665, 2612 614.500 C 2616.871 619.342, 2620 623.264, 2620 624.527 C 2620 627.174, 2621.826 629, 2624.473 629 C 2625.736 629, 2629.658 632.129, 2634.500 637 C 2639.335 641.863, 2643.265 645, 2644.524 645 C 2645.662 645, 2648.352 646.800, 2650.500 649 C 2652.654 651.206, 2655.367 653, 2656.548 653 C 2657.726 653, 2659.505 653.900, 2660.500 655 C 2661.495 656.100, 2663.295 657, 2664.500 657 C 2665.705 657, 2667.505 657.900, 2668.500 659 C 2669.495 660.100, 2671.295 661, 2672.500 661 C 2673.705 661, 2675.505 661.900, 2676.500 663 C 2677.761 664.394, 2679.580 665, 2682.500 665 C 2685.420 665, 2687.239 665.606, 2688.500 667 C 2689.939 668.590, 2691.580 669, 2696.500 669 C 2701.420 669, 2703.061 669.410, 2704.500 671 C 2706.148 672.821, 2707.580 673, 2720.500 673 C 2733.420 673, 2734.852 673.179, 2736.500 675 C 2739.114 677.888, 2749.886 677.888, 2752.500 675 C 2754.148 673.179, 2755.580 673, 2768.500 673 C 2781.420 673, 2782.852 672.821, 2784.500 671 C 2785.939 669.410, 2787.580 669, 2792.500 669 C 2797.420 669, 2799.061 668.590, 2800.500 667 C 2801.761 665.606, 2803.580 665, 2806.500 665 C 2809.420 665, 2811.239 664.394, 2812.500 663 C 2813.495 661.900, 2815.295 661, 2816.500 661 C 2817.705 661, 2819.505 660.100, 2820.500 659 C 2821.495 657.900, 2823.295 657, 2824.500 657 C 2825.705 657, 2827.505 656.100, 2828.500 655 C 2829.495 653.900, 2831.274 653, 2832.452 653 C 2833.633 653, 2836.346 651.206, 2838.500 649 C 2840.648 646.800, 2843.333 645, 2844.465 645 C 2847.259 645, 2877 615.237, 2877 612.441 C 2877 611.322, 2878.800 608.648, 2881 606.500 C 2883.206 604.346, 2885 601.633, 2885 600.452 C 2885 599.274, 2885.900 597.495, 2887 596.500 C 2888.100 595.505, 2889 593.705, 2889 592.500 C 2889 591.295, 2889.900 589.495, 2891 588.500 C 2892.100 587.505, 2893 585.705, 2893 584.500 C 2893 583.295, 2893.900 581.495, 2895 580.500 C 2896.394 579.239, 2897 577.420, 2897 574.500 C 2897 571.580, 2897.606 569.761, 2899 568.500 C 2900.394 567.239, 2901 565.420, 2901 562.500 C 2901 559.580, 2901.606 557.761, 2903 556.500 C 2904.587 555.064, 2905 553.420, 2905 548.541 C 2905 542.899, 2904.728 542.129, 2901.702 539.196 L 2898.405 536 2880.357 536 C 2863.580 536, 2862.183 536.141, 2860.500 538 C 2859.505 539.100, 2857.725 540, 2856.545 540 C 2853.064 540, 2852 542, 2852 548.545 C 2852 553.420, 2851.587 555.064, 2850 556.500 C 2848.606 557.761, 2848 559.580, 2848 562.500 C 2848 565.420, 2847.394 567.239, 2846 568.500 C 2844.900 569.495, 2844 571.274, 2844 572.452 C 2844 573.633, 2842.206 576.346, 2840 578.500 C 2837.800 580.648, 2836 583.334, 2836 584.467 C 2836 587.288, 2811.220 612, 2808.391 612 C 2807.246 612, 2805.495 612.900, 2804.500 614 C 2803.505 615.100, 2801.705 616, 2800.500 616 C 2799.295 616, 2797.495 616.900, 2796.500 618 C 2795.505 619.100, 2793.705 620, 2792.500 620 C 2791.295 620, 2789.495 620.900, 2788.500 622 C 2786.971 623.690, 2785.420 624, 2778.500 624 C 2771.580 624, 2770.029 624.310, 2768.500 626 C 2766.794 627.886, 2765.420 628, 2744.500 628 C 2723.580 628, 2722.206 627.886, 2720.500 626 C 2719.061 624.410, 2717.420 624, 2712.500 624 C 2707.580 624, 2705.939 623.590, 2704.500 622 C 2703.239 620.606, 2701.420 620, 2698.500 620 C 2695.580 620, 2693.761 619.394, 2692.500 618 C 2691.505 616.900, 2689.726 616, 2688.548 616 C 2687.367 616, 2684.654 614.206, 2682.500 612 C 2680.352 609.800, 2677.666 608, 2676.533 608 C 2673.752 608, 2649 583.222, 2649 580.439 C 2649 579.321, 2647.200 576.648, 2645 574.500 C 2642.794 572.346, 2641 569.633, 2641 568.452 C 2641 567.274, 2640.100 565.495, 2639 564.500 C 2637.900 563.505, 2637 561.705, 2637 560.500 C 2637 559.295, 2636.100 557.495, 2635 556.500 C 2633.606 555.239, 2633 553.420, 2633 550.500 C 2633 547.580, 2632.394 545.761, 2631 544.500 C 2629.606 543.239, 2629 541.420, 2629 538.500 C 2629 535.580, 2628.394 533.761, 2627 532.500 C 2625.310 530.971, 2625 529.420, 2625 522.500 C 2625 515.580, 2624.690 514.029, 2623 512.500 C 2621.090 510.772, 2621 509.420, 2621 482.500 C 2621 455.580, 2621.090 454.228, 2623 452.500 C 2624.690 450.971, 2625 449.420, 2625 442.500 C 2625 435.580, 2625.310 434.029, 2627 432.500 C 2628.394 431.239, 2629 429.420, 2629 426.500 C 2629 423.580, 2629.606 421.761, 2631 420.500 C 2632.394 419.239, 2633 417.420, 2633 414.500 C 2633 411.580, 2633.606 409.761, 2635 408.500 C 2636.100 407.505, 2637 405.705, 2637 404.500 C 2637 403.295, 2637.900 401.495, 2639 400.500 C 2640.100 399.505, 2641 397.726, 2641 396.548 C 2641 395.367, 2642.794 392.654, 2645 390.500 C 2647.200 388.352, 2649 385.682, 2649 384.567 C 2649 381.832, 2665.783 365, 2668.510 365 C 2669.692 365, 2673.081 362.455, 2676.500 359 C 2680.053 355.409, 2683.291 353, 2684.564 353 C 2685.733 353, 2687.505 352.100, 2688.500 351 C 2689.761 349.606, 2691.580 349, 2694.500 349 C 2697.420 349, 2699.239 348.394, 2700.500 347 C 2701.939 345.410, 2703.580 345, 2708.500 345 C 2713.420 345, 2715.061 344.590, 2716.500 343 C 2718.222 341.097, 2719.580 341, 2744.500 341 C 2769.420 341, 2770.778 341.097, 2772.500 343 C 2773.939 344.590, 2775.580 345, 2780.500 345 C 2785.420 345, 2787.061 345.410, 2788.500 347 C 2789.761 348.394, 2791.580 349, 2794.500 349 C 2797.420 349, 2799.239 349.606, 2800.500 351 C 2801.495 352.100, 2803.267 353, 2804.436 353 C 2805.709 353, 2808.947 355.409, 2812.500 359 C 2815.950 362.487, 2819.304 365, 2820.506 365 C 2823.149 365, 2832 373.918, 2832 376.581 C 2832 377.688, 2833.800 380.352, 2836 382.500 C 2838.206 384.654, 2840 387.367, 2840 388.548 C 2840 389.726, 2840.900 391.505, 2842 392.500 C 2843.100 393.495, 2844 395.295, 2844 396.500 C 2844 397.705, 2844.900 399.505, 2846 400.500 C 2847.394 401.761, 2848 403.580, 2848 406.500 C 2848 409.420, 2848.606 411.239, 2850 412.500 C 2851.388 413.756, 2852 415.580, 2852 418.459 C 2852 421.839, 2852.611 423.200, 2855.298 425.804 L 2858.595 429 2878.601 429 L 2898.608 429 2901.804 425.702 C 2905.481 421.908, 2905.849 419.078, 2903 416.500 C 2901.410 415.061, 2901 413.420, 2901 408.500 C 2901 403.580, 2900.590 401.939, 2899 400.500 C 2897.606 399.239, 2897 397.420, 2897 394.500 C 2897 391.580, 2896.394 389.761, 2895 388.500 C 2893.900 387.505, 2893 385.705, 2893 384.500 C 2893 383.295, 2892.100 381.495, 2891 380.500 C 2889.613 379.245, 2889 377.420, 2889 374.548 C 2889 371.033, 2888.394 369.814, 2885 366.500 C 2882.800 364.352, 2881 361.669, 2881 360.537 C 2881 357.729, 2843.254 320, 2840.444 320 C 2839.323 320, 2836.648 318.200, 2834.500 316 C 2832.346 313.794, 2829.633 312, 2828.452 312 C 2827.274 312, 2825.495 311.100, 2824.500 310 C 2823.505 308.900, 2821.705 308, 2820.500 308 C 2819.295 308, 2817.495 307.100, 2816.500 306 C 2815.239 304.606, 2813.420 304, 2810.500 304 C 2807.580 304, 2805.761 303.394, 2804.500 302 C 2803.239 300.606, 2801.420 300, 2798.500 300 C 2795.580 300, 2793.761 299.394, 2792.500 298 C 2790.971 296.310, 2789.420 296, 2782.500 296 C 2775.580 296, 2774.029 295.690, 2772.500 294 C 2770.778 292.097, 2769.420 292, 2744.500 292 C 2719.580 292, 2718.222 292.097, 2716.500 294 M 1465.200 301.200 C 1464.276 302.124, 1464 343.756, 1464 482.504 L 1464 662.608 1467.298 665.804 L 1470.595 669 1490.598 669 C 1504.822 669, 1510.947 668.653, 1511.800 667.800 C 1512.602 666.998, 1513 662.568, 1513 654.455 C 1513 643.580, 1513.209 642.121, 1515 640.500 C 1516.955 638.731, 1517 637.420, 1517 582.500 C 1517 527.580, 1516.955 526.269, 1515 524.500 C 1513.179 522.852, 1513 521.420, 1513 508.500 C 1513 495.580, 1513.179 494.148, 1515 492.500 C 1516.874 490.804, 1517 489.420, 1517 470.500 C 1517 451.580, 1516.874 450.196, 1515 448.500 C 1513.249 446.916, 1513 445.420, 1513 436.500 C 1513 427.580, 1513.249 426.084, 1515 424.500 C 1516.861 422.816, 1517 421.420, 1517 404.467 C 1517 389.205, 1516.747 386.035, 1515.445 384.955 C 1512.684 382.663, 1511.738 380.020, 1513.095 378.386 C 1514.152 377.112, 1515.023 377.583, 1519.164 381.662 C 1521.852 384.309, 1524 387.344, 1524 388.494 C 1524 389.696, 1526.513 393.050, 1530 396.500 C 1533.504 399.968, 1536 403.302, 1536 404.516 C 1536 405.659, 1537.800 408.352, 1540 410.500 C 1542.200 412.648, 1544 415.348, 1544 416.500 C 1544 417.652, 1545.800 420.352, 1548 422.500 C 1550.200 424.648, 1552 427.341, 1552 428.484 C 1552 429.698, 1554.496 433.032, 1558 436.500 C 1561.504 439.968, 1564 443.302, 1564 444.516 C 1564 445.659, 1565.800 448.352, 1568 450.500 C 1570.200 452.648, 1572 455.341, 1572 456.484 C 1572 457.698, 1574.496 461.032, 1578 464.500 C 1581.504 467.968, 1584 471.302, 1584 472.516 C 1584 473.659, 1585.800 476.352, 1588 478.500 C 1590.200 480.648, 1592 483.348, 1592 484.500 C 1592 485.652, 1593.800 488.352, 1596 490.500 C 1598.200 492.648, 1600 495.341, 1600 496.484 C 1600 497.698, 1602.496 501.032, 1606 504.500 C 1609.504 507.968, 1612 511.302, 1612 512.516 C 1612 513.659, 1613.800 516.352, 1616 518.500 C 1618.200 520.648, 1620 523.348, 1620 524.500 C 1620 525.652, 1621.800 528.352, 1624 530.500 C 1626.200 532.648, 1628 535.341, 1628 536.484 C 1628 537.698, 1630.496 541.032, 1634 544.500 C 1637.504 547.968, 1640 551.302, 1640 552.516 C 1640 553.659, 1641.800 556.352, 1644 558.500 C 1646.200 560.648, 1648 563.341, 1648 564.484 C 1648 565.698, 1650.496 569.032, 1654 572.500 C 1657.504 575.968, 1660 579.302, 1660 580.516 C 1660 581.659, 1661.800 584.352, 1664 586.500 C 1666.200 588.648, 1668 591.341, 1668 592.484 C 1668 593.698, 1670.496 597.032, 1674 600.500 C 1677.504 603.968, 1680 607.302, 1680 608.516 C 1680 609.659, 1681.800 612.352, 1684 614.500 C 1686.200 616.648, 1688 619.341, 1688 620.484 C 1688 621.698, 1690.496 625.032, 1694 628.500 C 1697.504 631.968, 1700 635.302, 1700 636.516 C 1700 637.659, 1701.800 640.352, 1704 642.500 C 1706.200 644.648, 1708 647.341, 1708 648.484 C 1708 649.698, 1710.496 653.032, 1714 656.500 C 1717.510 659.973, 1720 663.301, 1720 664.519 C 1720 668.795, 1721.213 669, 1746.500 669 C 1763.911 669, 1770.933 668.667, 1771.800 667.800 C 1773.546 666.054, 1773.546 302.946, 1771.800 301.200 C 1769.958 299.358, 1726.651 299.510, 1725.112 301.365 C 1724.280 302.367, 1723.988 340.337, 1724.010 444.427 C 1724.027 522.361, 1723.775 586.554, 1723.451 587.079 C 1722.514 588.596, 1721 587.093, 1721 584.644 C 1721 583.351, 1719.312 580.757, 1717 578.500 C 1714.800 576.352, 1713 573.652, 1713 572.500 C 1713 571.348, 1711.200 568.648, 1709 566.500 C 1706.800 564.352, 1705 561.659, 1705 560.516 C 1705 559.302, 1702.504 555.968, 1699 552.500 C 1695.496 549.032, 1693 545.698, 1693 544.484 C 1693 543.341, 1691.200 540.648, 1689 538.500 C 1686.800 536.352, 1685 533.652, 1685 532.500 C 1685 531.348, 1683.200 528.648, 1681 526.500 C 1678.800 524.352, 1677 521.659, 1677 520.516 C 1677 519.302, 1674.504 515.968, 1671 512.500 C 1667.496 509.032, 1665 505.698, 1665 504.484 C 1665 503.341, 1663.200 500.648, 1661 498.500 C 1658.800 496.352, 1657 493.652, 1657 492.500 C 1657 491.348, 1655.200 488.648, 1653 486.500 C 1650.800 484.352, 1649 481.659, 1649 480.516 C 1649 479.302, 1646.504 475.968, 1643 472.500 C 1639.496 469.032, 1637 465.698, 1637 464.484 C 1637 463.341, 1635.200 460.648, 1633 458.500 C 1630.800 456.352, 1629 453.652, 1629 452.500 C 1629 451.348, 1627.200 448.648, 1625 446.500 C 1622.800 444.352, 1621 441.659, 1621 440.516 C 1621 439.302, 1618.504 435.968, 1615 432.500 C 1611.496 429.032, 1609 425.698, 1609 424.484 C 1609 423.341, 1607.200 420.648, 1605 418.500 C 1602.800 416.352, 1601 413.652, 1601 412.500 C 1601 411.348, 1599.200 408.648, 1597 406.500 C 1594.800 404.352, 1593 401.659, 1593 400.516 C 1593 399.302, 1590.504 395.968, 1587 392.500 C 1583.496 389.032, 1581 385.698, 1581 384.484 C 1581 383.341, 1579.200 380.648, 1577 378.500 C 1574.800 376.352, 1573 373.652, 1573 372.500 C 1573 371.348, 1571.200 368.648, 1569 366.500 C 1566.800 364.352, 1565 361.652, 1565 360.500 C 1565 359.348, 1563.200 356.648, 1561 354.500 C 1558.800 352.352, 1557 349.659, 1557 348.516 C 1557 347.302, 1554.504 343.968, 1551 340.500 C 1547.496 337.032, 1545 333.698, 1545 332.484 C 1545 331.341, 1543.200 328.648, 1541 326.500 C 1538.800 324.352, 1537 321.652, 1537 320.500 C 1537 319.348, 1535.200 316.648, 1533 314.500 C 1530.800 312.352, 1529 309.649, 1529 308.493 C 1529 307.338, 1527.516 304.954, 1525.702 303.196 L 1522.405 300 1494.402 300 C 1473.956 300, 1466.076 300.324, 1465.200 301.200 M 3433.200 301.200 C 3432.297 302.103, 3432 315.321, 3432 354.545 C 3432 405.420, 3431.951 406.734, 3430 408.500 C 3426.952 411.258, 3426.984 430.884, 3430.039 432.792 C 3431.160 433.492, 3431.797 434.520, 3431.453 435.076 C 3430.525 436.577, 3421 426.914, 3421 424.472 C 3421 421.858, 3415.068 416, 3412.421 416 C 3411.323 416, 3407.787 413.321, 3404.500 410 C 3400.947 406.409, 3397.709 404, 3396.436 404 C 3395.267 404, 3393.495 403.100, 3392.500 402 C 3391.505 400.900, 3389.705 400, 3388.500 400 C 3387.295 400, 3385.495 399.100, 3384.500 398 C 3383.061 396.410, 3381.420 396, 3376.500 396 C 3371.580 396, 3369.939 395.590, 3368.500 394 C 3366.785 392.105, 3365.420 392, 3342.500 392 C 3319.580 392, 3318.215 392.105, 3316.500 394 C 3315.061 395.590, 3313.420 396, 3308.500 396 C 3303.580 396, 3301.939 396.410, 3300.500 398 C 3299.505 399.100, 3297.705 400, 3296.500 400 C 3295.295 400, 3293.495 400.900, 3292.500 402 C 3291.505 403.100, 3289.726 404, 3288.548 404 C 3287.367 404, 3284.654 405.794, 3282.500 408 C 3280.352 410.200, 3277.679 412, 3276.560 412 C 3273.774 412, 3248 437.749, 3248 440.533 C 3248 441.667, 3246.200 444.352, 3244 446.500 C 3241.794 448.654, 3240 451.367, 3240 452.548 C 3240 453.726, 3239.100 455.505, 3238 456.500 C 3236.900 457.495, 3236 459.295, 3236 460.500 C 3236 461.705, 3235.100 463.505, 3234 464.500 C 3232.606 465.761, 3232 467.580, 3232 470.500 C 3232 473.420, 3231.394 475.239, 3230 476.500 C 3228.410 477.939, 3228 479.580, 3228 484.500 C 3228 489.420, 3227.590 491.061, 3226 492.500 C 3224.310 494.029, 3224 495.580, 3224 502.500 C 3224 509.420, 3223.690 510.971, 3222 512.500 C 3220.157 514.168, 3220 515.580, 3220 530.500 C 3220 545.420, 3220.157 546.832, 3222 548.500 C 3223.751 550.084, 3224 551.580, 3224 560.500 C 3224 569.420, 3224.249 570.916, 3226 572.500 C 3227.590 573.939, 3228 575.580, 3228 580.500 C 3228 585.420, 3228.410 587.061, 3230 588.500 C 3231.394 589.761, 3232 591.580, 3232 594.500 C 3232 597.420, 3232.606 599.239, 3234 600.500 C 3235.100 601.495, 3236 603.295, 3236 604.500 C 3236 605.705, 3236.900 607.505, 3238 608.500 C 3239.100 609.495, 3240 611.274, 3240 612.452 C 3240 613.633, 3241.794 616.346, 3244 618.500 C 3246.200 620.648, 3248 623.333, 3248 624.465 C 3248 627.259, 3277.763 657, 3280.559 657 C 3281.678 657, 3284.352 658.800, 3286.500 661 C 3288.654 663.206, 3291.367 665, 3292.548 665 C 3293.726 665, 3295.505 665.900, 3296.500 667 C 3297.939 668.590, 3299.580 669, 3304.500 669 C 3309.420 669, 3311.061 669.410, 3312.500 671 C 3314.228 672.910, 3315.580 673, 3342.500 673 C 3369.420 673, 3370.772 672.910, 3372.500 671 C 3373.761 669.606, 3375.580 669, 3378.500 669 C 3381.420 669, 3383.239 668.394, 3384.500 667 C 3385.495 665.900, 3387.295 665, 3388.500 665 C 3389.705 665, 3391.505 664.100, 3392.500 663 C 3393.495 661.900, 3395.258 661, 3396.417 661 C 3397.805 661, 3403.951 655.564, 3414.446 645.055 C 3423.203 636.285, 3430.735 629.336, 3431.184 629.614 C 3431.633 629.891, 3432 638.326, 3432 648.359 C 3432 661.213, 3432.354 666.954, 3433.200 667.800 C 3434.054 668.654, 3440.201 669, 3454.504 669 L 3474.608 669 3477.804 665.702 L 3481 662.405 3481 502.357 C 3481 343.580, 3480.984 342.296, 3479 340.500 C 3477.140 338.817, 3477 337.420, 3477 320.545 C 3477 307.766, 3476.645 302.045, 3475.800 301.200 C 3474.104 299.504, 3434.896 299.504, 3433.200 301.200 M 2145.136 325.336 C 2144.383 326.244, 2143.942 337.723, 2143.763 361.086 L 2143.500 395.500 2121.027 395.770 L 2098.555 396.039 2095.277 399.216 L 2092 402.392 2092 418.500 L 2092 434.608 2095.277 437.784 L 2098.555 440.961 2121.027 441.230 L 2143.500 441.500 2143.755 530.100 C 2144.006 617.184, 2144.045 618.731, 2146.005 620.505 C 2147.394 621.761, 2148 623.584, 2148 626.500 C 2148 629.420, 2148.606 631.239, 2150 632.500 C 2151.100 633.495, 2152 635.295, 2152 636.500 C 2152 637.705, 2152.900 639.505, 2154 640.500 C 2155.100 641.495, 2156 643.268, 2156 644.439 C 2156 647.155, 2165.859 657, 2168.578 657 C 2169.687 657, 2172.352 658.800, 2174.500 661 C 2177.814 664.394, 2179.033 665, 2182.548 665 C 2185.420 665, 2187.245 665.613, 2188.500 667 C 2190.238 668.921, 2191.580 669, 2222.459 669 L 2254.608 669 2257.804 665.702 L 2261 662.405 2261 646.399 L 2261 630.392 2257.702 627.196 L 2254.405 624 2230.357 624 C 2207.813 624, 2206.200 623.879, 2204.551 622.056 C 2203.584 620.987, 2201.601 619.975, 2200.146 619.806 C 2198.187 619.579, 2197.412 618.851, 2197.162 617 C 2196.977 615.625, 2195.962 613.568, 2194.907 612.429 C 2193.043 610.418, 2192.996 607.959, 2193.244 525.929 L 2193.500 441.500 2223.968 441.235 L 2254.436 440.970 2257.718 437.789 L 2261 434.608 2261 418.500 L 2261 402.392 2257.718 399.211 L 2254.436 396.030 2223.968 395.765 L 2193.500 395.500 2193.237 361.086 C 2193.058 337.723, 2192.617 326.244, 2191.864 325.336 C 2190.249 323.390, 2146.751 323.390, 2145.136 325.336 M 1916.500 394 C 1915.239 395.394, 1913.420 396, 1910.500 396 C 1907.580 396, 1905.761 396.606, 1904.500 398 C 1903.239 399.394, 1901.420 400, 1898.500 400 C 1895.580 400, 1893.761 400.606, 1892.500 402 C 1891.505 403.100, 1889.705 404, 1888.500 404 C 1887.295 404, 1885.495 404.900, 1884.500 406 C 1883.505 407.100, 1881.726 408, 1880.548 408 C 1879.367 408, 1876.654 409.794, 1874.500 412 C 1872.352 414.200, 1869.666 416, 1868.531 416 C 1865.761 416, 1844 437.790, 1844 440.563 C 1844 441.680, 1842.200 444.352, 1840 446.500 C 1837.794 448.654, 1836 451.367, 1836 452.548 C 1836 453.726, 1835.100 455.505, 1834 456.500 C 1832.900 457.495, 1832 459.295, 1832 460.500 C 1832 461.705, 1831.100 463.505, 1830 464.500 C 1828.900 465.495, 1828 467.295, 1828 468.500 C 1828 469.705, 1827.100 471.505, 1826 472.500 C 1824.606 473.761, 1824 475.580, 1824 478.500 C 1824 481.420, 1823.394 483.239, 1822 484.500 C 1820.410 485.939, 1820 487.580, 1820 492.500 C 1820 497.420, 1819.590 499.061, 1818 500.500 C 1816.084 502.234, 1816 503.580, 1816 532.500 C 1816 561.420, 1816.084 562.766, 1818 564.500 C 1819.590 565.939, 1820 567.580, 1820 572.500 C 1820 577.420, 1820.410 579.061, 1822 580.500 C 1823.394 581.761, 1824 583.580, 1824 586.500 C 1824 589.420, 1824.606 591.239, 1826 592.500 C 1827.394 593.761, 1828 595.580, 1828 598.500 C 1828 601.420, 1828.606 603.239, 1830 604.500 C 1831.100 605.495, 1832 607.295, 1832 608.500 C 1832 609.705, 1832.900 611.505, 1834 612.500 C 1835.100 613.495, 1836 615.257, 1836 616.415 C 1836 619.310, 1873.708 657, 1876.604 657 C 1877.751 657, 1879.505 657.900, 1880.500 659 C 1881.495 660.100, 1883.295 661, 1884.500 661 C 1885.705 661, 1887.505 661.900, 1888.500 663 C 1889.761 664.394, 1891.580 665, 1894.500 665 C 1897.420 665, 1899.239 665.606, 1900.500 667 C 1901.761 668.394, 1903.580 669, 1906.500 669 C 1909.420 669, 1911.239 669.606, 1912.500 671 C 1914.239 672.921, 1915.580 673, 1946.500 673 C 1977.420 673, 1978.761 672.921, 1980.500 671 C 1981.939 669.410, 1983.580 669, 1988.500 669 C 1993.420 669, 1995.061 668.590, 1996.500 667 C 1997.495 665.900, 1999.295 665, 2000.500 665 C 2001.705 665, 2003.505 664.100, 2004.500 663 C 2005.495 661.900, 2007.295 661, 2008.500 661 C 2009.705 661, 2011.505 660.100, 2012.500 659 C 2013.495 657.900, 2015.274 657, 2016.452 657 C 2017.633 657, 2020.346 655.206, 2022.500 653 C 2024.648 650.800, 2027.336 649, 2028.473 649 C 2031.222 649, 2049 631.188, 2049 628.434 C 2049 627.319, 2050.800 624.648, 2053 622.500 C 2055.206 620.346, 2057 617.633, 2057 616.452 C 2057 615.274, 2057.900 613.495, 2059 612.500 C 2060.100 611.505, 2061 609.705, 2061 608.500 C 2061 607.295, 2061.900 605.495, 2063 604.500 C 2064.100 603.505, 2065 601.705, 2065 600.500 C 2065 599.295, 2065.900 597.495, 2067 596.500 C 2068.394 595.239, 2069 593.420, 2069 590.500 C 2069 587.580, 2069.606 585.761, 2071 584.500 C 2072.394 583.239, 2073 581.420, 2073 578.500 C 2073 575.580, 2073.606 573.761, 2075 572.500 C 2076.933 570.750, 2077 569.420, 2077 532.500 C 2077 495.580, 2076.933 494.250, 2075 492.500 C 2073.606 491.239, 2073 489.420, 2073 486.500 C 2073 483.580, 2072.394 481.761, 2071 480.500 C 2069.606 479.239, 2069 477.420, 2069 474.500 C 2069 471.580, 2068.394 469.761, 2067 468.500 C 2065.900 467.505, 2065 465.705, 2065 464.500 C 2065 463.295, 2064.100 461.495, 2063 460.500 C 2061.900 459.505, 2061 457.705, 2061 456.500 C 2061 455.295, 2060.100 453.495, 2059 452.500 C 2057.900 451.505, 2057 449.737, 2057 448.572 C 2057 447.253, 2053.980 443.450, 2049 438.500 C 2044.129 433.658, 2041 429.736, 2041 428.473 C 2041 425.824, 2039.173 424, 2036.519 424 C 2035.301 424, 2031.973 421.510, 2028.500 418 C 2024.947 414.409, 2021.709 412, 2020.436 412 C 2019.267 412, 2017.495 411.100, 2016.500 410 C 2015.505 408.900, 2013.705 408, 2012.500 408 C 2011.295 408, 2009.495 407.100, 2008.500 406 C 2007.505 404.900, 2005.705 404, 2004.500 404 C 2003.295 404, 2001.495 403.100, 2000.500 402 C 1999.505 400.900, 1997.705 400, 1996.500 400 C 1995.295 400, 1993.495 399.100, 1992.500 398 C 1991.061 396.410, 1989.420 396, 1984.500 396 C 1979.580 396, 1977.939 395.590, 1976.500 394 C 1974.772 392.090, 1973.420 392, 1946.500 392 C 1919.580 392, 1918.228 392.090, 1916.500 394 M 2380.500 394 C 2379.061 395.590, 2377.420 396, 2372.500 396 C 2367.580 396, 2365.939 396.410, 2364.500 398 C 2363.239 399.394, 2361.420 400, 2358.500 400 C 2355.580 400, 2353.761 400.606, 2352.500 402 C 2351.505 403.100, 2349.726 404, 2348.548 404 C 2347.367 404, 2344.654 405.794, 2342.500 408 C 2340.352 410.200, 2337.667 412, 2336.535 412 C 2333.700 412, 2304 441.765, 2304 444.607 C 2304 445.753, 2303.100 447.505, 2302 448.500 C 2300.900 449.495, 2300 451.295, 2300 452.500 C 2300 453.705, 2299.100 455.505, 2298 456.500 C 2296.900 457.495, 2296 459.295, 2296 460.500 C 2296 461.705, 2295.100 463.505, 2294 464.500 C 2292.900 465.495, 2292 467.295, 2292 468.500 C 2292 469.705, 2291.100 471.505, 2290 472.500 C 2288.606 473.761, 2288 475.580, 2288 478.500 C 2288 481.420, 2287.394 483.239, 2286 484.500 C 2284.410 485.939, 2284 487.580, 2284 492.500 C 2284 497.420, 2283.590 499.061, 2282 500.500 C 2280.084 502.234, 2280 503.580, 2280 532.500 C 2280 561.420, 2280.084 562.766, 2282 564.500 C 2283.690 566.029, 2284 567.580, 2284 574.500 C 2284 581.420, 2284.310 582.971, 2286 584.500 C 2287.394 585.761, 2288 587.580, 2288 590.500 C 2288 593.420, 2288.606 595.239, 2290 596.500 C 2291.100 597.495, 2292 599.295, 2292 600.500 C 2292 601.705, 2292.900 603.505, 2294 604.500 C 2295.100 605.495, 2296 607.295, 2296 608.500 C 2296 609.705, 2296.900 611.505, 2298 612.500 C 2299.100 613.495, 2300 615.267, 2300 616.436 C 2300 617.709, 2302.409 620.947, 2306 624.500 C 2309.480 627.944, 2312 631.305, 2312 632.503 C 2312 635.148, 2321.904 645, 2324.563 645 C 2325.681 645, 2329.181 647.646, 2332.500 651 C 2336.053 654.591, 2339.291 657, 2340.564 657 C 2341.733 657, 2343.505 657.900, 2344.500 659 C 2345.495 660.100, 2347.295 661, 2348.500 661 C 2349.705 661, 2351.505 661.900, 2352.500 663 C 2353.495 664.100, 2355.295 665, 2356.500 665 C 2357.705 665, 2359.505 665.900, 2360.500 667 C 2361.761 668.394, 2363.580 669, 2366.500 669 C 2369.420 669, 2371.239 669.606, 2372.500 671 C 2374.148 672.821, 2375.580 673, 2388.500 673 C 2401.420 673, 2402.852 673.179, 2404.500 675 C 2405.495 676.100, 2407.295 677, 2408.500 677 C 2409.705 677, 2411.505 676.100, 2412.500 675 C 2414.148 673.179, 2415.580 673, 2428.500 673 C 2441.420 673, 2442.852 672.821, 2444.500 671 C 2445.939 669.410, 2447.580 669, 2452.500 669 C 2457.420 669, 2459.061 668.590, 2460.500 667 C 2461.495 665.900, 2463.295 665, 2464.500 665 C 2465.705 665, 2467.505 664.100, 2468.500 663 C 2469.495 661.900, 2471.274 661, 2472.452 661 C 2473.633 661, 2476.346 659.206, 2478.500 657 C 2480.648 654.800, 2483.321 653, 2484.440 653 C 2487.266 653, 2513 627.248, 2513 624.419 C 2513 623.259, 2513.900 621.495, 2515 620.500 C 2516.100 619.505, 2517 617.705, 2517 616.500 C 2517 615.295, 2517.900 613.495, 2519 612.500 C 2520.100 611.505, 2521 609.705, 2521 608.500 C 2521 607.295, 2521.900 605.495, 2523 604.500 C 2524.394 603.239, 2525 601.420, 2525 598.500 C 2525 595.580, 2525.606 593.761, 2527 592.500 C 2529.283 590.434, 2529.796 583.196, 2527.800 581.200 C 2526.939 580.339, 2520.356 580, 2504.500 580 C 2488.644 580, 2482.061 580.339, 2481.200 581.200 C 2480.540 581.860, 2480 584.265, 2480 586.545 C 2480 589.420, 2479.387 591.245, 2478 592.500 C 2476.900 593.495, 2476 595.274, 2476 596.452 C 2476 597.633, 2474.206 600.346, 2472 602.500 C 2469.800 604.648, 2468 607.355, 2468 608.516 C 2468 611.147, 2463.071 616, 2460.398 616 C 2459.302 616, 2456.648 617.800, 2454.500 620 C 2452.346 622.206, 2449.633 624, 2448.452 624 C 2447.274 624, 2445.495 624.900, 2444.500 626 C 2443.061 627.590, 2441.420 628, 2436.500 628 C 2431.580 628, 2429.939 628.410, 2428.500 630 C 2426.816 631.860, 2425.420 632, 2408.500 632 C 2391.580 632, 2390.184 631.860, 2388.500 630 C 2387.239 628.606, 2385.420 628, 2382.500 628 C 2379.580 628, 2377.761 627.394, 2376.500 626 C 2375.505 624.900, 2373.705 624, 2372.500 624 C 2371.295 624, 2369.495 623.100, 2368.500 622 C 2367.505 620.900, 2365.756 620, 2364.615 620 C 2361.821 620, 2345 603.255, 2345 600.474 C 2345 599.336, 2343.200 596.648, 2341 594.500 C 2337.606 591.186, 2337 589.967, 2337 586.452 C 2337 583.580, 2336.387 581.755, 2335 580.500 C 2333.310 578.971, 2333 577.420, 2333 570.500 C 2333 563.518, 2332.698 562.037, 2330.953 560.458 C 2329.352 559.009, 2328.971 557.615, 2329.203 554.053 L 2329.500 549.500 2427.957 549.245 L 2526.415 548.990 2529.707 545.799 L 2533 542.608 2533 530.459 C 2533 519.580, 2532.791 518.121, 2531 516.500 C 2529.208 514.879, 2529 513.420, 2529 502.500 C 2529 491.580, 2528.792 490.121, 2527 488.500 C 2525.410 487.061, 2525 485.420, 2525 480.500 C 2525 475.580, 2524.590 473.939, 2523 472.500 C 2521.606 471.239, 2521 469.420, 2521 466.500 C 2521 463.580, 2520.394 461.761, 2519 460.500 C 2517.900 459.505, 2517 457.705, 2517 456.500 C 2517 455.295, 2516.100 453.495, 2515 452.500 C 2513.900 451.505, 2513 449.726, 2513 448.548 C 2513 447.367, 2511.206 444.654, 2509 442.500 C 2506.800 440.352, 2505 437.664, 2505 436.527 C 2505 433.778, 2487.188 416, 2484.434 416 C 2483.319 416, 2480.648 414.200, 2478.500 412 C 2476.346 409.794, 2473.633 408, 2472.452 408 C 2471.274 408, 2469.495 407.100, 2468.500 406 C 2467.505 404.900, 2465.705 404, 2464.500 404 C 2463.295 404, 2461.495 403.100, 2460.500 402 C 2459.505 400.900, 2457.705 400, 2456.500 400 C 2455.295 400, 2453.495 399.100, 2452.500 398 C 2451.061 396.410, 2449.420 396, 2444.500 396 C 2439.580 396, 2437.939 395.590, 2436.500 394 C 2434.778 392.097, 2433.420 392, 2408.500 392 C 2383.580 392, 2382.222 392.097, 2380.500 394 M 3032.500 394 C 3031.239 395.394, 3029.420 396, 3026.500 396 C 3023.580 396, 3021.761 396.606, 3020.500 398 C 3019.239 399.394, 3017.420 400, 3014.500 400 C 3011.580 400, 3009.761 400.606, 3008.500 402 C 3007.505 403.100, 3005.705 404, 3004.500 404 C 3003.295 404, 3001.495 404.900, 3000.500 406 C 2999.505 407.100, 2997.726 408, 2996.548 408 C 2995.367 408, 2992.654 409.794, 2990.500 412 C 2988.352 414.200, 2985.666 416, 2984.531 416 C 2981.761 416, 2960 437.790, 2960 440.563 C 2960 441.680, 2958.200 444.352, 2956 446.500 C 2953.794 448.654, 2952 451.367, 2952 452.548 C 2952 453.726, 2951.100 455.505, 2950 456.500 C 2948.900 457.495, 2948 459.295, 2948 460.500 C 2948 461.705, 2947.100 463.505, 2946 464.500 C 2944.900 465.495, 2944 467.295, 2944 468.500 C 2944 469.705, 2943.100 471.505, 2942 472.500 C 2940.606 473.761, 2940 475.580, 2940 478.500 C 2940 481.420, 2939.394 483.239, 2938 484.500 C 2936.410 485.939, 2936 487.580, 2936 492.500 C 2936 497.420, 2935.590 499.061, 2934 500.500 C 2932.090 502.228, 2932 503.580, 2932 530.500 C 2932 557.420, 2932.090 558.772, 2934 560.500 C 2935.690 562.029, 2936 563.580, 2936 570.500 C 2936 577.420, 2936.310 578.971, 2938 580.500 C 2939.394 581.761, 2940 583.580, 2940 586.500 C 2940 589.420, 2940.606 591.239, 2942 592.500 C 2943.100 593.495, 2944 595.295, 2944 596.500 C 2944 597.705, 2944.900 599.505, 2946 600.500 C 2947.100 601.495, 2948 603.295, 2948 604.500 C 2948 605.705, 2948.900 607.505, 2950 608.500 C 2951.100 609.495, 2952 611.295, 2952 612.500 C 2952 613.705, 2952.900 615.505, 2954 616.500 C 2955.100 617.495, 2956 619.258, 2956 620.417 C 2956 623.297, 2985.724 653, 2988.607 653 C 2989.753 653, 2991.505 653.900, 2992.500 655 C 2993.495 656.100, 2995.274 657, 2996.452 657 C 2997.633 657, 3000.346 658.794, 3002.500 661 C 3005.814 664.394, 3007.033 665, 3010.548 665 C 3013.420 665, 3015.245 665.613, 3016.500 667 C 3017.761 668.394, 3019.580 669, 3022.500 669 C 3025.420 669, 3027.239 669.606, 3028.500 671 C 3030.239 672.921, 3031.580 673, 3062.500 673 C 3093.420 673, 3094.761 672.921, 3096.500 671 C 3097.939 669.410, 3099.580 669, 3104.500 669 C 3109.420 669, 3111.061 668.590, 3112.500 667 C 3113.495 665.900, 3115.295 665, 3116.500 665 C 3117.705 665, 3119.505 664.100, 3120.500 663 C 3121.495 661.900, 3123.295 661, 3124.500 661 C 3125.705 661, 3127.505 660.100, 3128.500 659 C 3129.495 657.900, 3131.274 657, 3132.452 657 C 3133.633 657, 3136.346 655.206, 3138.500 653 C 3140.648 650.800, 3143.334 649, 3144.469 649 C 3147.239 649, 3169 627.210, 3169 624.437 C 3169 623.320, 3170.800 620.648, 3173 618.500 C 3175.206 616.346, 3177 613.633, 3177 612.452 C 3177 611.274, 3177.900 609.495, 3179 608.500 C 3180.100 607.505, 3181 605.705, 3181 604.500 C 3181 603.295, 3181.900 601.495, 3183 600.500 C 3184.394 599.239, 3185 597.420, 3185 594.500 C 3185 591.580, 3185.606 589.761, 3187 588.500 C 3188.394 587.239, 3189 585.420, 3189 582.500 C 3189 579.580, 3189.606 577.761, 3191 576.500 C 3192.590 575.061, 3193 573.420, 3193 568.500 C 3193 563.580, 3193.410 561.939, 3195 560.500 C 3196.895 558.785, 3197 557.420, 3197 534.500 C 3197 511.580, 3196.895 510.215, 3195 508.500 C 3193.310 506.971, 3193 505.420, 3193 498.500 C 3193 491.580, 3192.690 490.029, 3191 488.500 C 3189.606 487.239, 3189 485.420, 3189 482.500 C 3189 479.580, 3188.394 477.761, 3187 476.500 C 3185.606 475.239, 3185 473.420, 3185 470.500 C 3185 467.580, 3184.394 465.761, 3183 464.500 C 3181.900 463.505, 3181 461.705, 3181 460.500 C 3181 459.295, 3180.100 457.495, 3179 456.500 C 3177.900 455.505, 3177 453.733, 3177 452.564 C 3177 451.291, 3174.591 448.053, 3171 444.500 C 3167.630 441.166, 3165 437.682, 3165 436.555 C 3165 433.845, 3151.183 420, 3148.478 420 C 3147.338 420, 3144.648 418.200, 3142.500 416 C 3140.352 413.800, 3137.652 412, 3136.500 412 C 3135.348 412, 3132.648 410.200, 3130.500 408 C 3127.186 404.606, 3125.967 404, 3122.452 404 C 3119.580 404, 3117.755 403.387, 3116.500 402 C 3115.505 400.900, 3113.705 400, 3112.500 400 C 3111.295 400, 3109.495 399.100, 3108.500 398 C 3107.061 396.410, 3105.420 396, 3100.500 396 C 3095.580 396, 3093.939 395.590, 3092.500 394 C 3090.772 392.090, 3089.420 392, 3062.500 392 C 3035.580 392, 3034.228 392.090, 3032.500 394 M 3608.500 394 C 3607.239 395.394, 3605.420 396, 3602.500 396 C 3599.580 396, 3597.761 396.606, 3596.500 398 C 3595.239 399.394, 3593.420 400, 3590.500 400 C 3587.580 400, 3585.761 400.606, 3584.500 402 C 3583.505 403.100, 3581.726 404, 3580.548 404 C 3579.367 404, 3576.654 405.794, 3574.500 408 C 3572.352 410.200, 3569.659 412, 3568.516 412 C 3567.302 412, 3563.968 414.496, 3560.500 418 C 3557.027 421.510, 3553.699 424, 3552.481 424 C 3549.827 424, 3548 425.824, 3548 428.473 C 3548 429.736, 3544.871 433.658, 3540 438.500 C 3535.020 443.450, 3532 447.253, 3532 448.572 C 3532 449.737, 3531.100 451.505, 3530 452.500 C 3528.900 453.495, 3528 455.295, 3528 456.500 C 3528 457.705, 3527.100 459.505, 3526 460.500 C 3524.606 461.761, 3524 463.580, 3524 466.500 C 3524 469.420, 3523.394 471.239, 3522 472.500 C 3520.900 473.495, 3520 475.295, 3520 476.500 C 3520 477.705, 3519.100 479.505, 3518 480.500 C 3516.410 481.939, 3516 483.580, 3516 488.500 C 3516 493.420, 3515.590 495.061, 3514 496.500 C 3512.179 498.148, 3512 499.580, 3512 512.500 C 3512 525.420, 3511.821 526.852, 3510 528.500 C 3508.606 529.761, 3508 531.580, 3508 534.500 C 3508 537.420, 3508.606 539.239, 3510 540.500 C 3511.821 542.148, 3512 543.580, 3512 556.500 C 3512 569.420, 3512.179 570.852, 3514 572.500 C 3515.394 573.761, 3516 575.580, 3516 578.500 C 3516 581.420, 3516.606 583.239, 3518 584.500 C 3519.394 585.761, 3520 587.580, 3520 590.500 C 3520 593.420, 3520.606 595.239, 3522 596.500 C 3523.100 597.495, 3524 599.295, 3524 600.500 C 3524 601.705, 3524.900 603.505, 3526 604.500 C 3527.387 605.755, 3528 607.580, 3528 610.452 C 3528 613.967, 3528.606 615.186, 3532 618.500 C 3534.200 620.648, 3536 623.333, 3536 624.467 C 3536 627.291, 3561.777 653, 3564.608 653 C 3565.753 653, 3567.505 653.900, 3568.500 655 C 3569.495 656.100, 3571.274 657, 3572.452 657 C 3573.633 657, 3576.346 658.794, 3578.500 661 C 3581.814 664.394, 3583.033 665, 3586.548 665 C 3589.420 665, 3591.245 665.613, 3592.500 667 C 3593.761 668.394, 3595.580 669, 3598.500 669 C 3601.420 669, 3603.239 669.606, 3604.500 671 C 3606.149 672.823, 3607.580 673, 3620.620 673 C 3633.906 673, 3635.006 673.143, 3636 675 C 3636.589 676.100, 3637.714 677, 3638.500 677 C 3639.286 677, 3640.411 676.100, 3641 675 C 3642.003 673.126, 3643.094 673, 3658.380 673 C 3673.420 673, 3674.831 672.844, 3676.500 671 C 3677.761 669.606, 3679.580 669, 3682.500 669 C 3685.420 669, 3687.239 668.394, 3688.500 667 C 3689.761 665.606, 3691.580 665, 3694.500 665 C 3697.420 665, 3699.239 664.394, 3700.500 663 C 3701.495 661.900, 3703.274 661, 3704.452 661 C 3705.633 661, 3708.346 659.206, 3710.500 657 C 3712.648 654.800, 3715.334 653, 3716.469 653 C 3719.239 653, 3741 631.210, 3741 628.437 C 3741 627.320, 3742.800 624.648, 3745 622.500 C 3747.206 620.346, 3749 617.633, 3749 616.452 C 3749 615.274, 3749.900 613.495, 3751 612.500 C 3752.394 611.239, 3753 609.420, 3753 606.500 C 3753 603.580, 3753.606 601.761, 3755 600.500 C 3756.394 599.239, 3757 597.420, 3757 594.500 C 3757 591.580, 3757.606 589.761, 3759 588.500 C 3761.239 586.474, 3761.618 583.018, 3759.800 581.200 C 3758.939 580.339, 3752.356 580, 3736.500 580 C 3720.644 580, 3714.061 580.339, 3713.200 581.200 C 3712.540 581.860, 3712 584.265, 3712 586.545 C 3712 589.420, 3711.387 591.245, 3710 592.500 C 3708.900 593.495, 3708 595.259, 3708 596.419 C 3708 597.790, 3703.529 602.990, 3695.236 611.264 C 3683.060 623.413, 3682.284 624, 3678.391 624 C 3675.580 624, 3673.747 624.622, 3672.500 626 C 3671.239 627.394, 3669.420 628, 3666.500 628 C 3663.580 628, 3661.761 628.606, 3660.500 630 C 3658.816 631.860, 3657.420 632, 3640.500 632 C 3623.580 632, 3622.184 631.860, 3620.500 630 C 3619.239 628.606, 3617.420 628, 3614.500 628 C 3611.580 628, 3609.761 627.394, 3608.500 626 C 3607.505 624.900, 3605.705 624, 3604.500 624 C 3603.295 624, 3601.495 623.100, 3600.500 622 C 3599.505 620.900, 3597.756 620, 3596.615 620 C 3593.821 620, 3577 603.255, 3577 600.474 C 3577 599.336, 3575.200 596.648, 3573 594.500 C 3569.606 591.186, 3569 589.967, 3569 586.452 C 3569 583.580, 3568.387 581.755, 3567 580.500 C 3565.410 579.061, 3565 577.420, 3565 572.500 C 3565 567.538, 3564.595 565.943, 3562.959 564.463 C 3561.229 562.898, 3560.962 561.613, 3561.209 556.058 L 3561.500 549.500 3659.903 549.245 C 3730.594 549.062, 3758.686 548.675, 3759.653 547.873 C 3760.714 546.992, 3761 541.617, 3761 522.533 C 3761 499.580, 3760.895 498.215, 3759 496.500 C 3757.310 494.971, 3757 493.420, 3757 486.500 C 3757 479.580, 3756.690 478.029, 3755 476.500 C 3753.606 475.239, 3753 473.420, 3753 470.500 C 3753 467.580, 3752.394 465.761, 3751 464.500 C 3749.900 463.505, 3749 461.705, 3749 460.500 C 3749 459.295, 3748.100 457.495, 3747 456.500 C 3745.900 455.505, 3745 453.705, 3745 452.500 C 3745 451.295, 3744.100 449.495, 3743 448.500 C 3741.900 447.505, 3741 445.733, 3741 444.564 C 3741 443.291, 3738.591 440.053, 3735 436.500 C 3731.483 433.020, 3729 429.700, 3729 428.477 C 3729 425.859, 3723.071 420, 3720.421 420 C 3719.323 420, 3715.787 417.321, 3712.500 414 C 3708.947 410.409, 3705.709 408, 3704.436 408 C 3703.267 408, 3701.495 407.100, 3700.500 406 C 3699.505 404.900, 3697.705 404, 3696.500 404 C 3695.295 404, 3693.495 403.100, 3692.500 402 C 3691.239 400.606, 3689.420 400, 3686.500 400 C 3683.580 400, 3681.761 399.394, 3680.500 398 C 3679.239 396.606, 3677.420 396, 3674.500 396 C 3671.580 396, 3669.761 395.394, 3668.500 394 C 3666.772 392.090, 3665.420 392, 3638.500 392 C 3611.580 392, 3610.228 392.090, 3608.500 394 M 2396.500 435 C 2395.061 436.590, 2393.420 437, 2388.500 437 C 2383.580 437, 2381.939 437.410, 2380.500 439 C 2379.245 440.387, 2377.420 441, 2374.548 441 C 2371.033 441, 2369.814 441.606, 2366.500 445 C 2364.352 447.200, 2361.661 449, 2360.520 449 C 2357.776 449, 2345 461.858, 2345 464.620 C 2345 465.759, 2344.100 467.505, 2343 468.500 C 2341.900 469.495, 2341 471.295, 2341 472.500 C 2341 473.705, 2340.100 475.505, 2339 476.500 C 2337.900 477.495, 2337 479.295, 2337 480.500 C 2337 481.705, 2336.100 483.505, 2335 484.500 C 2333.410 485.939, 2333 487.580, 2333 492.500 C 2333 497.468, 2332.596 499.056, 2330.953 500.543 C 2329.677 501.697, 2329.017 503.358, 2329.203 504.948 L 2329.500 507.500 2404.500 507.500 L 2479.500 507.500 2479.782 496.934 C 2480.037 487.380, 2479.869 486.192, 2478.032 484.529 C 2476.605 483.238, 2476 481.442, 2476 478.500 C 2476 475.580, 2475.394 473.761, 2474 472.500 C 2472.900 471.505, 2472 469.733, 2472 468.564 C 2472 467.293, 2469.605 464.068, 2466.050 460.550 C 2462.413 456.951, 2459.984 453.658, 2459.800 452.081 C 2459.573 450.129, 2458.855 449.425, 2456.854 449.194 C 2455.399 449.025, 2453.416 448.013, 2452.449 446.944 C 2451.482 445.875, 2449.705 445, 2448.500 445 C 2447.295 445, 2445.495 444.100, 2444.500 443 C 2443.505 441.900, 2441.705 441, 2440.500 441 C 2439.295 441, 2437.495 440.100, 2436.500 439 C 2434.971 437.310, 2433.420 437, 2426.500 437 C 2419.580 437, 2418.029 436.690, 2416.500 435 C 2414.971 433.310, 2413.420 433, 2406.500 433 C 2399.580 433, 2398.029 433.310, 2396.500 435 M 3628.500 435 C 3627.061 436.590, 3625.420 437, 3620.500 437 C 3615.580 437, 3613.939 437.410, 3612.500 439 C 3611.239 440.394, 3609.420 441, 3606.500 441 C 3603.580 441, 3601.761 441.606, 3600.500 443 C 3599.505 444.100, 3597.756 445, 3596.615 445 C 3593.821 445, 3577 461.745, 3577 464.526 C 3577 465.664, 3575.200 468.352, 3573 470.500 C 3569.606 473.814, 3569 475.033, 3569 478.548 C 3569 481.420, 3568.387 483.245, 3567 484.500 C 3565.410 485.939, 3565 487.580, 3565 492.500 C 3565 497.468, 3564.596 499.056, 3562.953 500.543 C 3561.677 501.697, 3561.017 503.358, 3561.203 504.948 L 3561.500 507.500 3636.500 507.500 L 3711.500 507.500 3711.782 496.934 C 3712.037 487.380, 3711.869 486.192, 3710.032 484.529 C 3708.605 483.238, 3708 481.442, 3708 478.500 C 3708 475.580, 3707.394 473.761, 3706 472.500 C 3704.900 471.505, 3704 469.740, 3704 468.578 C 3704 465.728, 3683.243 445, 3680.389 445 C 3679.245 445, 3677.495 444.100, 3676.500 443 C 3675.505 441.900, 3673.705 441, 3672.500 441 C 3671.295 441, 3669.495 440.100, 3668.500 439 C 3667.061 437.410, 3665.420 437, 3660.500 437 C 3655.580 437, 3653.939 436.590, 3652.500 435 C 3650.916 433.249, 3649.420 433, 3640.500 433 C 3631.580 433, 3630.084 433.249, 3628.500 435 M 1920.500 439 C 1919.239 440.394, 1917.420 441, 1914.500 441 C 1911.580 441, 1909.761 441.606, 1908.500 443 C 1907.505 444.100, 1905.740 445, 1904.578 445 C 1901.728 445, 1881 465.757, 1881 468.611 C 1881 469.755, 1880.100 471.505, 1879 472.500 C 1877.900 473.495, 1877 475.295, 1877 476.500 C 1877 477.705, 1876.100 479.505, 1875 480.500 C 1873.606 481.761, 1873 483.580, 1873 486.500 C 1873 489.420, 1872.394 491.239, 1871 492.500 C 1869.410 493.939, 1869 495.580, 1869 500.500 C 1869 505.420, 1868.590 507.061, 1867 508.500 C 1865.105 510.215, 1865 511.580, 1865 534.500 C 1865 557.420, 1865.105 558.785, 1867 560.500 C 1868.590 561.939, 1869 563.580, 1869 568.500 C 1869 573.420, 1869.410 575.061, 1871 576.500 C 1872.100 577.495, 1873 579.295, 1873 580.500 C 1873 581.705, 1873.900 583.505, 1875 584.500 C 1876.100 585.495, 1877 587.295, 1877 588.500 C 1877 589.705, 1877.900 591.505, 1879 592.500 C 1880.100 593.495, 1881 595.260, 1881 596.422 C 1881 599.272, 1901.757 620, 1904.611 620 C 1905.755 620, 1907.505 620.900, 1908.500 622 C 1909.495 623.100, 1911.295 624, 1912.500 624 C 1913.705 624, 1915.505 624.900, 1916.500 626 C 1917.939 627.590, 1919.580 628, 1924.500 628 C 1929.420 628, 1931.061 628.410, 1932.500 630 C 1934.121 631.792, 1935.580 632, 1946.500 632 C 1957.420 632, 1958.879 631.792, 1960.500 630 C 1961.939 628.410, 1963.580 628, 1968.500 628 C 1973.420 628, 1975.061 627.590, 1976.500 626 C 1977.495 624.900, 1979.295 624, 1980.500 624 C 1981.705 624, 1983.505 623.100, 1984.500 622 C 1985.495 620.900, 1987.274 620, 1988.452 620 C 1989.633 620, 1992.346 618.206, 1994.500 616 C 1996.648 613.800, 1999.355 612, 2000.516 612 C 2003.147 612, 2008 607.071, 2008 604.398 C 2008 603.302, 2009.800 600.648, 2012 598.500 C 2014.206 596.346, 2016 593.633, 2016 592.452 C 2016 591.274, 2016.900 589.495, 2018 588.500 C 2019.100 587.505, 2020 585.705, 2020 584.500 C 2020 583.295, 2020.900 581.495, 2022 580.500 C 2023.394 579.239, 2024 577.420, 2024 574.500 C 2024 571.580, 2024.606 569.761, 2026 568.500 C 2027.921 566.761, 2028 565.420, 2028 534.500 C 2028 503.580, 2027.921 502.239, 2026 500.500 C 2024.606 499.239, 2024 497.420, 2024 494.500 C 2024 491.580, 2023.394 489.761, 2022 488.500 C 2020.606 487.239, 2020 485.420, 2020 482.500 C 2020 479.580, 2019.394 477.761, 2018 476.500 C 2016.900 475.505, 2016 473.741, 2016 472.581 C 2016 469.714, 1991.260 445, 1988.391 445 C 1987.246 445, 1985.495 444.100, 1984.500 443 C 1983.239 441.606, 1981.420 441, 1978.500 441 C 1975.580 441, 1973.761 440.394, 1972.500 439 C 1970.785 437.105, 1969.420 437, 1946.500 437 C 1923.580 437, 1922.215 437.105, 1920.500 439 M 3036.500 439 C 3035.505 440.100, 3033.705 441, 3032.500 441 C 3031.295 441, 3029.495 441.900, 3028.500 443 C 3027.505 444.100, 3025.705 445, 3024.500 445 C 3023.295 445, 3021.495 445.900, 3020.500 447 C 3019.505 448.100, 3017.735 449, 3016.568 449 C 3013.816 449, 3001 461.819, 3001 464.572 C 3001 465.684, 2999.200 468.352, 2997 470.500 C 2993.606 473.814, 2993 475.033, 2993 478.548 C 2993 481.420, 2992.387 483.245, 2991 484.500 C 2989.606 485.761, 2989 487.580, 2989 490.500 C 2989 493.420, 2988.394 495.239, 2987 496.500 C 2985.310 498.029, 2985 499.580, 2985 506.500 C 2985 513.420, 2984.690 514.971, 2983 516.500 C 2981.157 518.168, 2981 519.580, 2981 534.500 C 2981 549.420, 2981.157 550.832, 2983 552.500 C 2984.590 553.939, 2985 555.580, 2985 560.500 C 2985 565.420, 2985.410 567.061, 2987 568.500 C 2988.590 569.939, 2989 571.580, 2989 576.500 C 2989 581.420, 2989.410 583.061, 2991 584.500 C 2992.100 585.495, 2993 587.295, 2993 588.500 C 2993 589.705, 2993.900 591.505, 2995 592.500 C 2996.100 593.495, 2997 595.260, 2997 596.422 C 2997 599.272, 3017.757 620, 3020.611 620 C 3021.755 620, 3023.505 620.900, 3024.500 622 C 3025.761 623.394, 3027.580 624, 3030.500 624 C 3033.420 624, 3035.239 624.606, 3036.500 626 C 3037.761 627.394, 3039.580 628, 3042.500 628 C 3045.420 628, 3047.239 628.606, 3048.500 630 C 3050.121 631.792, 3051.580 632, 3062.500 632 C 3073.420 632, 3074.879 631.792, 3076.500 630 C 3077.939 628.410, 3079.580 628, 3084.500 628 C 3089.420 628, 3091.061 627.590, 3092.500 626 C 3093.755 624.613, 3095.580 624, 3098.452 624 C 3101.967 624, 3103.186 623.394, 3106.500 620 C 3108.648 617.800, 3111.339 616, 3112.480 616 C 3115.224 616, 3128 603.142, 3128 600.380 C 3128 599.241, 3128.900 597.495, 3130 596.500 C 3131.100 595.505, 3132 593.705, 3132 592.500 C 3132 591.295, 3132.900 589.495, 3134 588.500 C 3135.100 587.505, 3136 585.705, 3136 584.500 C 3136 583.295, 3136.900 581.495, 3138 580.500 C 3139.394 579.239, 3140 577.420, 3140 574.500 C 3140 571.580, 3140.606 569.761, 3142 568.500 C 3143.690 566.971, 3144 565.420, 3144 558.500 C 3144 551.580, 3144.310 550.029, 3146 548.500 C 3147.792 546.879, 3148 545.420, 3148 534.500 C 3148 523.580, 3147.792 522.121, 3146 520.500 C 3144.249 518.916, 3144 517.420, 3144 508.500 C 3144 499.580, 3143.751 498.084, 3142 496.500 C 3140.606 495.239, 3140 493.420, 3140 490.500 C 3140 487.580, 3139.394 485.761, 3138 484.500 C 3136.900 483.505, 3136 481.705, 3136 480.500 C 3136 479.295, 3135.100 477.495, 3134 476.500 C 3132.900 475.505, 3132 473.733, 3132 472.564 C 3132 471.293, 3129.605 468.068, 3126.050 464.550 C 3122.413 460.951, 3119.984 457.658, 3119.800 456.081 C 3119.575 454.144, 3118.852 453.425, 3116.902 453.198 C 3115.474 453.032, 3112.570 451.120, 3110.450 448.948 C 3108.329 446.777, 3105.630 445, 3104.452 445 C 3103.274 445, 3101.495 444.100, 3100.500 443 C 3099.239 441.606, 3097.420 441, 3094.500 441 C 3091.580 441, 3089.761 440.394, 3088.500 439 C 3086.785 437.105, 3085.420 437, 3062.500 437 C 3039.580 437, 3038.215 437.105, 3036.500 439 M 3324.500 439 C 3323.247 440.384, 3321.420 441, 3318.564 441 C 3314.847 441, 3313.848 441.595, 3308.500 447 C 3305.004 450.533, 3301.702 453, 3300.468 453 C 3297.850 453, 3293 457.937, 3293 460.602 C 3293 461.698, 3291.200 464.352, 3289 466.500 C 3286.794 468.654, 3285 471.367, 3285 472.548 C 3285 473.726, 3284.100 475.505, 3283 476.500 C 3281.606 477.761, 3281 479.580, 3281 482.500 C 3281 485.420, 3280.394 487.239, 3279 488.500 C 3277.410 489.939, 3277 491.580, 3277 496.500 C 3277 501.420, 3276.590 503.061, 3275 504.500 C 3273.097 506.222, 3273 507.580, 3273 532.500 C 3273 557.420, 3273.097 558.778, 3275 560.500 C 3276.590 561.939, 3277 563.580, 3277 568.500 C 3277 573.420, 3277.410 575.061, 3279 576.500 C 3280.394 577.761, 3281 579.580, 3281 582.500 C 3281 585.420, 3281.606 587.239, 3283 588.500 C 3284.100 589.495, 3285 591.274, 3285 592.452 C 3285 593.633, 3286.794 596.346, 3289 598.500 C 3291.200 600.648, 3293 603.344, 3293 604.491 C 3293 607.149, 3301.907 616, 3304.581 616 C 3305.688 616, 3308.352 617.800, 3310.500 620 C 3313.814 623.394, 3315.033 624, 3318.548 624 C 3321.420 624, 3323.245 624.613, 3324.500 626 C 3325.761 627.394, 3327.580 628, 3330.500 628 C 3333.420 628, 3335.239 628.606, 3336.500 630 C 3338.121 631.792, 3339.580 632, 3350.500 632 C 3361.420 632, 3362.879 631.792, 3364.500 630 C 3365.939 628.410, 3367.580 628, 3372.500 628 C 3377.420 628, 3379.061 627.590, 3380.500 626 C 3381.495 624.900, 3383.295 624, 3384.500 624 C 3385.705 624, 3387.505 623.100, 3388.500 622 C 3389.495 620.900, 3391.260 620, 3392.422 620 C 3395.233 620, 3416 599.245, 3416 596.437 C 3416 595.320, 3417.800 592.648, 3420 590.500 C 3423.394 587.186, 3424 585.967, 3424 582.452 C 3424 579.580, 3424.613 577.755, 3426 576.500 C 3427.590 575.061, 3428 573.420, 3428 568.500 C 3428 563.580, 3428.410 561.939, 3430 560.500 C 3431.903 558.778, 3432 557.420, 3432 532.500 C 3432 507.580, 3431.903 506.222, 3430 504.500 C 3428.606 503.239, 3428 501.420, 3428 498.500 C 3428 495.580, 3427.394 493.761, 3426 492.500 C 3424.606 491.239, 3424 489.420, 3424 486.500 C 3424 483.580, 3423.394 481.761, 3422 480.500 C 3420.900 479.505, 3420 477.726, 3420 476.548 C 3420 475.367, 3418.206 472.654, 3416 470.500 C 3413.800 468.352, 3412 465.664, 3412 464.526 C 3412 461.745, 3395.179 445, 3392.385 445 C 3391.244 445, 3389.495 444.100, 3388.500 443 C 3387.239 441.606, 3385.420 441, 3382.500 441 C 3379.580 441, 3377.761 440.394, 3376.500 439 C 3374.785 437.105, 3373.420 437, 3350.500 437 C 3327.580 437, 3326.215 437.105, 3324.500 439"/>
  </g>
</svg>
