<svg xmlns="http://www.w3.org/2000/svg" viewBox="0 0 335 234" role="img" aria-labelledby="notecode-mark-white-title">
  <title id="notecode-mark-white-title">NoteCode monogram</title>
  <g transform="scale(0.25)" fill="#fff" fill-rule="evenodd">
    <path d="M 356.500 114 C 354.916 115.751, 353.420 116, 344.500 116 C 335.580 116, 334.084 116.249, 332.500 118 C 331.061 119.590, 329.420 120, 324.500 120 C 319.580 120, 317.939 120.410, 316.500 122 C 315.505 123.100, 313.705 124, 312.500 124 C 311.295 124, 309.495 124.900, 308.500 126 C 307.239 127.394, 305.420 128, 302.500 128 C 299.580 128, 297.761 128.606, 296.500 130 C 295.505 131.100, 293.705 132, 292.500 132 C 291.295 132, 289.495 132.900, 288.500 134 C 287.505 135.100, 285.733 136, 284.564 136 C 283.291 136, 280.053 138.409, 276.500 142 C 273.061 145.475, 269.695 148, 268.500 148 C 267.305 148, 263.939 150.525, 260.500 154 C 257.076 157.460, 253.693 160, 252.508 160 C 251.269 160, 247.296 163.176, 242.500 168 C 237.704 172.824, 233.731 176, 232.492 176 C 231.307 176, 227.924 178.540, 224.500 182 C 221.076 185.460, 217.693 188, 216.508 188 C 215.269 188, 211.296 191.176, 206.500 196 C 201.736 200.792, 197.728 204, 196.505 204 C 195.249 204, 190.627 207.850, 184.500 214 C 178.388 220.135, 173.750 224, 172.500 224 C 171.250 224, 166.612 227.865, 160.500 234 C 154.373 240.150, 149.751 244, 148.495 244 C 147.272 244, 143.264 247.208, 138.500 252 C 133.648 256.880, 129.737 260, 128.470 260 C 125.850 260, 120 265.936, 120 268.595 C 120 269.694, 118.200 272.352, 116 274.500 C 112.606 277.814, 112 279.033, 112 282.548 C 112 285.420, 111.387 287.245, 110 288.500 C 108.016 290.296, 108 291.580, 108 452.459 L 108 614.608 111.298 617.804 L 114.595 621 184.598 621 C 237.711 621, 254.890 620.710, 255.800 619.800 C 256.725 618.875, 257 574.568, 257 426.455 C 257 235.580, 257.013 234.298, 259 232.500 C 260.394 231.239, 261 229.420, 261 226.500 C 261 223.580, 261.606 221.761, 263 220.500 C 264.100 219.505, 265 217.719, 265 216.532 C 265 213.840, 269.916 209, 272.650 209 C 273.772 209, 275.505 208.100, 276.500 207 C 278.121 205.208, 279.580 205, 290.500 205 C 301.420 205, 302.879 205.208, 304.500 207 C 305.495 208.100, 307.295 209, 308.500 209 C 309.705 209, 311.505 209.900, 312.500 211 C 313.495 212.100, 315.247 213, 316.393 213 C 319.273 213, 348 241.705, 348 244.583 C 348 245.742, 348.900 247.505, 350 248.500 C 351.100 249.495, 352 251.295, 352 252.500 C 352 253.705, 352.900 255.505, 354 256.500 C 355.100 257.495, 356 259.295, 356 260.500 C 356 261.705, 356.900 263.505, 358 264.500 C 359.100 265.495, 360 267.274, 360 268.452 C 360 269.633, 361.794 272.346, 364 274.500 C 366.206 276.654, 368 279.367, 368 280.548 C 368 281.726, 368.900 283.505, 370 284.500 C 371.100 285.495, 372 287.295, 372 288.500 C 372 289.705, 372.900 291.505, 374 292.500 C 375.100 293.495, 376 295.295, 376 296.500 C 376 297.705, 376.900 299.505, 378 300.500 C 379.100 301.495, 380 303.295, 380 304.500 C 380 305.705, 380.900 307.505, 382 308.500 C 383.100 309.495, 384 311.295, 384 312.500 C 384 313.705, 384.900 315.505, 386 316.500 C 387.100 317.495, 388 319.295, 388 320.500 C 388 321.705, 388.900 323.505, 390 324.500 C 391.100 325.495, 392 327.295, 392 328.500 C 392 329.705, 392.900 331.505, 394 332.500 C 395.100 333.495, 396 335.295, 396 336.500 C 396 337.705, 396.900 339.505, 398 340.500 C 399.100 341.495, 400 343.274, 400 344.452 C 400 345.633, 401.794 348.346, 404 350.500 C 406.206 352.654, 408 355.367, 408 356.548 C 408 357.726, 408.900 359.505, 410 360.500 C 411.100 361.495, 412 363.295, 412 364.500 C 412 365.705, 412.900 367.505, 414 368.500 C 415.100 369.495, 416 371.295, 416 372.500 C 416 373.705, 416.900 375.505, 418 376.500 C 419.100 377.495, 420 379.295, 420 380.500 C 420 381.705, 420.900 383.505, 422 384.500 C 423.100 385.495, 424 387.295, 424 388.500 C 424 389.705, 424.900 391.505, 426 392.500 C 427.100 393.495, 428 395.295, 428 396.500 C 428 397.705, 428.900 399.505, 430 400.500 C 431.100 401.495, 432 403.295, 432 404.500 C 432 405.705, 432.900 407.505, 434 408.500 C 435.100 409.495, 436 411.295, 436 412.500 C 436 413.705, 436.900 415.505, 438 416.500 C 439.100 417.495, 440 419.295, 440 420.500 C 440 421.705, 440.900 423.505, 442 424.500 C 443.100 425.495, 444 427.295, 444 428.500 C 444 429.705, 444.900 431.505, 446 432.500 C 447.100 433.495, 448 435.274, 448 436.452 C 448 437.633, 449.794 440.346, 452 442.500 C 454.206 444.654, 456 447.367, 456 448.548 C 456 449.726, 456.900 451.505, 458 452.500 C 459.100 453.495, 460 455.295, 460 456.500 C 460 457.705, 460.900 459.505, 462 460.500 C 463.100 461.495, 464 463.295, 464 464.500 C 464 465.705, 464.900 467.505, 466 468.500 C 467.100 469.495, 468 471.295, 468 472.500 C 468 473.705, 468.900 475.505, 470 476.500 C 471.100 477.495, 472 479.295, 472 480.500 C 472 481.705, 472.900 483.505, 474 484.500 C 475.100 485.495, 476 487.295, 476 488.500 C 476 489.705, 476.900 491.505, 478 492.500 C 479.100 493.495, 480 495.295, 480 496.500 C 480 497.705, 480.900 499.505, 482 500.500 C 483.100 501.495, 484 503.295, 484 504.500 C 484 505.705, 484.900 507.505, 486 508.500 C 487.100 509.495, 488 511.274, 488 512.452 C 488 513.633, 489.794 516.346, 492 518.500 C 494.206 520.654, 496 523.367, 496 524.548 C 496 525.726, 496.900 527.505, 498 528.500 C 499.100 529.495, 500 531.295, 500 532.500 C 500 533.705, 500.900 535.505, 502 536.500 C 503.100 537.495, 504 539.295, 504 540.500 C 504 541.705, 504.900 543.505, 506 544.500 C 507.100 545.495, 508 547.295, 508 548.500 C 508 549.705, 508.900 551.505, 510 552.500 C 511.100 553.495, 512 555.295, 512 556.500 C 512 557.705, 512.900 559.505, 514 560.500 C 515.100 561.495, 516 563.295, 516 564.500 C 516 565.705, 516.900 567.505, 518 568.500 C 519.100 569.495, 520 571.295, 520 572.500 C 520 573.705, 520.900 575.505, 522 576.500 C 523.100 577.495, 524 579.295, 524 580.500 C 524 581.705, 524.900 583.505, 526 584.500 C 527.100 585.495, 528 587.295, 528 588.500 C 528 589.705, 528.900 591.505, 530 592.500 C 531.100 593.495, 532 595.295, 532 596.500 C 532 597.705, 532.900 599.505, 534 600.500 C 535.100 601.495, 536 603.295, 536 604.500 C 536 605.705, 536.900 607.505, 538 608.500 C 539.100 609.495, 540 611.295, 540 612.500 C 540 613.705, 540.900 615.505, 542 616.500 C 543.100 617.495, 544 619.295, 544 620.500 C 544 621.705, 544.900 623.505, 546 624.500 C 547.100 625.495, 548 627.274, 548 628.452 C 548 629.633, 549.794 632.346, 552 634.500 C 554.206 636.654, 556 639.367, 556 640.548 C 556 641.726, 556.900 643.505, 558 644.500 C 559.100 645.495, 560 647.295, 560 648.500 C 560 649.705, 560.900 651.505, 562 652.500 C 563.100 653.495, 564 655.295, 564 656.500 C 564 657.705, 564.900 659.505, 566 660.500 C 567.100 661.495, 568 663.295, 568 664.500 C 568 665.705, 568.900 667.505, 570 668.500 C 571.100 669.495, 572 671.295, 572 672.500 C 572 673.705, 572.900 675.505, 574 676.500 C 575.100 677.495, 576 679.295, 576 680.500 C 576 681.705, 576.900 683.505, 578 684.500 C 579.100 685.495, 580 687.295, 580 688.500 C 580 689.705, 580.900 691.505, 582 692.500 C 583.100 693.495, 584 695.277, 584 696.459 C 584 699.129, 589.898 705, 592.582 705 C 595.194 705, 605 695.030, 605 692.374 C 605 691.239, 605.900 689.495, 607 688.500 C 608.100 687.505, 609 685.705, 609 684.500 C 609 683.295, 609.900 681.495, 611 680.500 C 612.100 679.505, 613 677.726, 613 676.548 C 613 675.367, 614.794 672.654, 617 670.500 C 619.206 668.346, 621 665.633, 621 664.452 C 621 663.274, 621.900 661.495, 623 660.500 C 624.100 659.505, 625 657.705, 625 656.500 C 625 655.295, 625.900 653.495, 627 652.500 C 628.100 651.505, 629 649.726, 629 648.548 C 629 647.367, 630.794 644.654, 633 642.500 C 635.206 640.346, 637 637.633, 637 636.452 C 637 635.274, 637.900 633.495, 639 632.500 C 640.100 631.505, 641 629.705, 641 628.500 C 641 627.295, 641.900 625.495, 643 624.500 C 644.100 623.505, 645 621.726, 645 620.548 C 645 619.367, 646.794 616.654, 649 614.500 C 651.206 612.346, 653 609.633, 653 608.452 C 653 607.274, 653.900 605.495, 655 604.500 C 656.100 603.505, 657 601.726, 657 600.548 C 657 599.367, 658.794 596.654, 661 594.500 C 663.206 592.346, 665 589.633, 665 588.452 C 665 587.274, 665.900 585.495, 667 584.500 C 668.100 583.505, 669 581.726, 669 580.548 C 669 579.367, 670.794 576.654, 673 574.500 C 675.206 572.346, 677 569.633, 677 568.452 C 677 567.274, 677.900 565.495, 679 564.500 C 680.100 563.505, 681 561.726, 681 560.548 C 681 559.367, 682.794 556.654, 685 554.500 C 687.206 552.346, 689 549.633, 689 548.452 C 689 547.274, 689.900 545.495, 691 544.500 C 692.751 542.916, 693 541.420, 693 532.500 C 693 523.580, 692.751 522.084, 691 520.500 C 689.900 519.505, 689 517.705, 689 516.500 C 689 515.295, 688.100 513.495, 687 512.500 C 685.900 511.505, 685 509.705, 685 508.500 C 685 507.295, 684.100 505.495, 683 504.500 C 681.900 503.505, 681 501.705, 681 500.500 C 681 499.295, 680.100 497.495, 679 496.500 C 677.900 495.505, 677 493.705, 677 492.500 C 677 491.295, 676.100 489.495, 675 488.500 C 673.900 487.505, 673 485.705, 673 484.500 C 673 483.295, 672.100 481.495, 671 480.500 C 669.900 479.505, 669 477.705, 669 476.500 C 669 475.295, 668.100 473.495, 667 472.500 C 665.900 471.505, 665 469.705, 665 468.500 C 665 467.295, 664.100 465.495, 663 464.500 C 661.900 463.505, 661 461.705, 661 460.500 C 661 459.295, 660.100 457.495, 659 456.500 C 657.900 455.505, 657 453.726, 657 452.548 C 657 451.367, 655.206 448.654, 653 446.500 C 650.794 444.346, 649 441.633, 649 440.452 C 649 439.274, 648.100 437.495, 647 436.500 C 645.900 435.505, 645 433.705, 645 432.500 C 645 431.295, 644.100 429.495, 643 428.500 C 641.900 427.505, 641 425.705, 641 424.500 C 641 423.295, 640.100 421.495, 639 420.500 C 637.900 419.505, 637 417.705, 637 416.500 C 637 415.295, 636.100 413.495, 635 412.500 C 633.900 411.505, 633 409.705, 633 408.500 C 633 407.295, 632.100 405.495, 631 404.500 C 629.900 403.505, 629 401.705, 629 400.500 C 629 399.295, 628.100 397.495, 627 396.500 C 625.900 395.505, 625 393.705, 625 392.500 C 625 391.295, 624.100 389.495, 623 388.500 C 621.900 387.505, 621 385.705, 621 384.500 C 621 383.295, 620.100 381.495, 619 380.500 C 617.900 379.505, 617 377.705, 617 376.500 C 617 375.295, 616.100 373.495, 615 372.500 C 613.900 371.505, 613 369.705, 613 368.500 C 613 367.295, 612.100 365.495, 611 364.500 C 609.900 363.505, 609 361.705, 609 360.500 C 609 359.295, 608.100 357.495, 607 356.500 C 605.900 355.505, 605 353.705, 605 352.500 C 605 351.295, 604.100 349.495, 603 348.500 C 601.900 347.505, 601 345.705, 601 344.500 C 601 343.295, 600.100 341.495, 599 340.500 C 597.900 339.505, 597 337.726, 597 336.548 C 597 335.367, 595.206 332.654, 593 330.500 C 590.794 328.346, 589 325.633, 589 324.452 C 589 323.274, 588.100 321.495, 587 320.500 C 585.900 319.505, 585 317.705, 585 316.500 C 585 315.295, 584.100 313.495, 583 312.500 C 581.900 311.505, 581 309.705, 581 308.500 C 581 307.295, 580.100 305.495, 579 304.500 C 577.900 303.505, 577 301.705, 577 300.500 C 577 299.295, 576.100 297.495, 575 296.500 C 573.900 295.505, 573 293.705, 573 292.500 C 573 291.295, 572.100 289.495, 571 288.500 C 569.900 287.505, 569 285.705, 569 284.500 C 569 283.295, 568.100 281.495, 567 280.500 C 565.900 279.505, 565 277.705, 565 276.500 C 565 275.295, 564.100 273.495, 563 272.500 C 561.900 271.505, 561 269.705, 561 268.500 C 561 267.295, 560.100 265.495, 559 264.500 C 557.900 263.505, 557 261.705, 557 260.500 C 557 259.295, 556.100 257.495, 555 256.500 C 553.900 255.505, 553 253.705, 553 252.500 C 553 251.295, 552.100 249.495, 551 248.500 C 549.900 247.505, 549 245.705, 549 244.500 C 549 243.295, 548.100 241.495, 547 240.500 C 545.900 239.505, 545 237.726, 545 236.548 C 545 235.367, 543.206 232.654, 541 230.500 C 537.621 227.200, 537 225.959, 537 222.500 C 537 219.041, 536.379 217.800, 533 214.500 C 530.794 212.346, 529 209.633, 529 208.452 C 529 207.274, 528.100 205.495, 527 204.500 C 525.900 203.505, 525 201.705, 525 200.500 C 525 199.295, 524.100 197.495, 523 196.500 C 521.900 195.505, 521 193.705, 521 192.500 C 521 191.295, 520.100 189.495, 519 188.500 C 517.900 187.505, 517 185.705, 517 184.500 C 517 183.295, 516.100 181.495, 515 180.500 C 513.900 179.505, 513 177.733, 513 176.564 C 513 175.291, 510.591 172.053, 507 168.500 C 503.520 165.056, 501 161.695, 501 160.497 C 501 157.852, 491.096 148, 488.437 148 C 487.319 148, 483.819 145.354, 480.500 142 C 476.947 138.409, 473.709 136, 472.436 136 C 471.267 136, 469.495 135.100, 468.500 134 C 467.505 132.900, 465.705 132, 464.500 132 C 463.295 132, 461.495 131.100, 460.500 130 C 459.505 128.900, 457.705 128, 456.500 128 C 455.295 128, 453.495 127.100, 452.500 126 C 451.239 124.606, 449.420 124, 446.500 124 C 443.580 124, 441.761 123.394, 440.500 122 C 439.239 120.606, 437.420 120, 434.500 120 C 431.580 120, 429.761 119.394, 428.500 118 C 426.916 116.249, 425.420 116, 416.500 116 C 407.580 116, 406.084 115.751, 404.500 114 C 402.794 112.114, 401.420 112, 380.500 112 C 359.580 112, 358.206 112.114, 356.500 114 M 960.500 294 C 958.971 295.690, 957.420 296, 950.500 296 C 943.580 296, 942.029 296.310, 940.500 298 C 939.239 299.394, 937.420 300, 934.500 300 C 931.580 300, 929.761 300.606, 928.500 302 C 927.239 303.394, 925.420 304, 922.500 304 C 919.580 304, 917.761 304.606, 916.500 306 C 915.239 307.394, 913.420 308, 910.500 308 C 907.580 308, 905.761 308.606, 904.500 310 C 903.505 311.100, 901.705 312, 900.500 312 C 899.295 312, 897.495 312.900, 896.500 314 C 895.505 315.100, 893.705 316, 892.500 316 C 891.295 316, 889.495 316.900, 888.500 318 C 887.505 319.100, 885.726 320, 884.548 320 C 883.367 320, 880.654 321.794, 878.500 324 C 876.352 326.200, 873.652 328, 872.500 328 C 871.348 328, 868.648 329.800, 866.500 332 C 864.352 334.200, 861.668 336, 860.536 336 C 857.748 336, 824 369.753, 824 372.542 C 824 373.685, 821.395 377.140, 818 380.500 C 814.496 383.968, 812 387.302, 812 388.516 C 812 389.659, 810.200 392.352, 808 394.500 C 805.800 396.648, 804 399.348, 804 400.500 C 804 401.652, 802.200 404.352, 800 406.500 C 797.794 408.654, 796 411.367, 796 412.548 C 796 413.726, 795.100 415.505, 794 416.500 C 792.900 417.495, 792 419.274, 792 420.452 C 792 421.633, 790.206 424.346, 788 426.500 C 785.794 428.654, 784 431.367, 784 432.548 C 784 433.726, 783.100 435.505, 782 436.500 C 780.900 437.495, 780 439.274, 780 440.452 C 780 441.633, 778.206 444.346, 776 446.500 C 773.800 448.648, 772 451.348, 772 452.500 C 772 453.652, 770.200 456.352, 768 458.500 C 765.794 460.654, 764 463.367, 764 464.548 C 764 465.726, 763.100 467.505, 762 468.500 C 760.900 469.495, 760 471.295, 760 472.500 C 760 473.705, 759.100 475.505, 758 476.500 C 756.900 477.495, 756 479.274, 756 480.452 C 756 481.633, 754.206 484.346, 752 486.500 C 749.794 488.654, 748 491.367, 748 492.548 C 748 493.726, 747.100 495.505, 746 496.500 C 744.900 497.495, 744 499.274, 744 500.452 C 744 501.633, 742.206 504.346, 740 506.500 C 737.794 508.654, 736 511.367, 736 512.548 C 736 513.726, 735.100 515.505, 734 516.500 C 732.900 517.495, 732 519.295, 732 520.500 C 732 521.705, 731.100 523.505, 730 524.500 C 728.900 525.495, 728 527.295, 728 528.500 C 728 529.705, 727.100 531.505, 726 532.500 C 724.900 533.495, 724 535.295, 724 536.500 C 724 537.705, 723.100 539.505, 722 540.500 C 720.900 541.495, 720 543.295, 720 544.500 C 720 545.705, 719.100 547.505, 718 548.500 C 716.606 549.761, 716 551.580, 716 554.500 C 716 557.420, 715.394 559.239, 714 560.500 C 712.606 561.761, 712 563.580, 712 566.500 C 712 569.420, 711.394 571.239, 710 572.500 C 708.410 573.939, 708 575.580, 708 580.500 C 708 585.420, 707.590 587.061, 706 588.500 C 704.249 590.084, 704 591.580, 704 600.500 C 704 609.420, 703.751 610.916, 702 612.500 C 700.140 614.184, 700 615.580, 700 632.500 C 700 649.420, 700.140 650.816, 702 652.500 C 703.751 654.084, 704 655.580, 704 664.500 C 704 673.420, 704.249 674.916, 706 676.500 C 707.590 677.939, 708 679.580, 708 684.500 C 708 689.420, 708.410 691.061, 710 692.500 C 711.100 693.495, 712 695.295, 712 696.500 C 712 697.705, 712.900 699.505, 714 700.500 C 715.100 701.495, 716 703.295, 716 704.500 C 716 705.705, 716.900 707.505, 718 708.500 C 719.100 709.495, 720 711.295, 720 712.500 C 720 713.705, 720.900 715.505, 722 716.500 C 723.100 717.495, 724 719.295, 724 720.500 C 724 721.705, 724.900 723.505, 726 724.500 C 727.100 725.495, 728 727.267, 728 728.436 C 728 729.709, 730.409 732.947, 734 736.500 C 737.453 739.917, 740 743.308, 740 744.488 C 740 747.203, 757.824 765, 760.542 765 C 761.719 765, 765.833 768.305, 770.500 773 C 775.335 777.863, 779.265 781, 780.524 781 C 781.662 781, 784.352 782.800, 786.500 785 C 788.654 787.206, 791.367 789, 792.548 789 C 793.726 789, 795.505 789.900, 796.500 791 C 797.495 792.100, 799.295 793, 800.500 793 C 801.705 793, 803.505 793.900, 804.500 795 C 805.495 796.100, 807.295 797, 808.500 797 C 809.705 797, 811.505 797.900, 812.500 799 C 813.495 800.100, 815.295 801, 816.500 801 C 817.705 801, 819.505 801.900, 820.500 803 C 821.761 804.394, 823.580 805, 826.500 805 C 829.420 805, 831.239 805.606, 832.500 807 C 833.761 808.394, 835.580 809, 838.500 809 C 841.420 809, 843.239 809.606, 844.500 811 C 845.939 812.590, 847.580 813, 852.500 813 C 857.420 813, 859.061 813.410, 860.500 815 C 861.939 816.590, 863.580 817, 868.500 817 C 873.420 817, 875.061 817.410, 876.500 819 C 878.148 820.821, 879.580 821, 892.500 821 C 905.420 821, 906.852 821.179, 908.500 823 C 910.289 824.977, 911.580 825, 1022.500 825 C 1133.420 825, 1134.711 824.977, 1136.500 823 C 1137.753 821.615, 1139.580 821, 1142.439 821 C 1146.098 821, 1147.162 820.399, 1151.784 815.719 C 1154.653 812.814, 1157 809.530, 1157 808.422 C 1157 807.313, 1158.800 804.648, 1161 802.500 C 1163.206 800.346, 1165 797.633, 1165 796.452 C 1165 795.274, 1165.900 793.495, 1167 792.500 C 1168.100 791.505, 1169 789.726, 1169 788.548 C 1169 787.367, 1170.794 784.654, 1173 782.500 C 1175.206 780.346, 1177 777.633, 1177 776.452 C 1177 775.274, 1177.900 773.495, 1179 772.500 C 1180.100 771.505, 1181 769.726, 1181 768.548 C 1181 767.367, 1182.794 764.654, 1185 762.500 C 1187.206 760.346, 1189 757.633, 1189 756.452 C 1189 755.274, 1189.900 753.495, 1191 752.500 C 1192.100 751.505, 1193 749.726, 1193 748.548 C 1193 747.367, 1194.794 744.654, 1197 742.500 C 1199.206 740.346, 1201 737.633, 1201 736.452 C 1201 735.274, 1201.900 733.495, 1203 732.500 C 1204.100 731.505, 1205 729.705, 1205 728.500 C 1205 727.295, 1205.900 725.495, 1207 724.500 C 1208.100 723.505, 1209 721.726, 1209 720.548 C 1209 719.367, 1210.794 716.654, 1213 714.500 C 1215.206 712.346, 1217 709.633, 1217 708.452 C 1217 707.274, 1217.900 705.495, 1219 704.500 C 1220.100 703.505, 1221 701.726, 1221 700.548 C 1221 699.367, 1222.794 696.654, 1225 694.500 C 1227.206 692.346, 1229 689.633, 1229 688.452 C 1229 687.274, 1229.900 685.495, 1231 684.500 C 1232.100 683.505, 1233 681.705, 1233 680.500 C 1233 679.295, 1233.900 677.495, 1235 676.500 C 1237.890 673.884, 1237.466 670.844, 1233.702 667.196 L 1230.405 664 1086.357 664 C 943.580 664, 942.294 663.982, 940.500 662 C 938.916 660.249, 937.420 660, 928.500 660 C 919.580 660, 918.084 659.751, 916.500 658 C 915.061 656.410, 913.420 656, 908.500 656 C 903.580 656, 901.939 655.590, 900.500 654 C 899.239 652.606, 897.420 652, 894.500 652 C 891.580 652, 889.761 651.394, 888.500 650 C 887.505 648.900, 885.705 648, 884.500 648 C 883.295 648, 881.495 647.100, 880.500 646 C 879.239 644.606, 877.420 644, 874.500 644 C 871.580 644, 869.761 643.394, 868.500 642 C 867.505 640.900, 865.726 640, 864.548 640 C 863.367 640, 860.654 638.206, 858.500 636 C 856.352 633.800, 853.652 632, 852.500 632 C 851.348 632, 848.648 630.200, 846.500 628 C 844.352 625.800, 841.668 624, 840.536 624 C 837.736 624, 805 591.244, 805 588.442 C 805 587.322, 803.200 584.648, 801 582.500 C 798.794 580.346, 797 577.633, 797 576.452 C 797 575.274, 796.100 573.495, 795 572.500 C 793.900 571.505, 793 569.705, 793 568.500 C 793 567.295, 792.100 565.495, 791 564.500 C 789.606 563.239, 789 561.420, 789 558.500 C 789 555.580, 788.394 553.761, 787 552.500 C 785.606 551.239, 785 549.420, 785 546.500 C 785 543.580, 784.394 541.761, 783 540.500 C 781.114 538.794, 781 537.420, 781 516.500 C 781 495.580, 781.114 494.206, 783 492.500 C 784.100 491.505, 785 489.705, 785 488.500 C 785 487.295, 785.900 485.495, 787 484.500 C 788.100 483.505, 789 481.730, 789 480.557 C 789 477.827, 797.882 469, 800.629 469 C 801.763 469, 803.505 468.100, 804.500 467 C 805.495 465.900, 807.295 465, 808.500 465 C 809.705 465, 811.505 464.100, 812.500 463 C 813.495 461.900, 815.295 461, 816.500 461 C 817.705 461, 819.505 460.100, 820.500 459 C 821.761 457.606, 823.580 457, 826.500 457 C 829.420 457, 831.239 456.394, 832.500 455 C 834.029 453.310, 835.580 453, 842.500 453 C 849.420 453, 850.971 452.690, 852.500 451 C 854.296 449.015, 855.580 449, 1022.455 449 C 1151.901 449, 1190.876 448.724, 1191.800 447.800 C 1193.537 446.063, 1193.537 294.937, 1191.800 293.200 C 1190.881 292.281, 1163.901 292, 1076.455 292 C 963.580 292, 962.290 292.022, 960.500 294"/>
  </g>
</svg>
